<svg width="360" height="558" viewBox="0 0 360 558" fill="none" xmlns="http://www.w3.org/2000/svg">
<g clip-path="url(#clip0_1627_17469)">
<rect width="360" height="558" rx="10" fill="url(#paint0_linear_1627_17469)"/>
<g filter="url(#filter0_d_1627_17469)">
<path d="M34.8317 -54.0112C37.6112 -56.2964 40.2098 -58.8255 42.6106 -61.5543C49.5472 -57.1237 57.5675 -54.6059 65.951 -54.6059C72.8182 -54.6059 79.4159 -56.2205 85.3869 -59.2171C69.3485 -28.4854 40.226 44.5617 73.4302 123.486C110.01 210.435 80.5883 287.325 65.0615 318.181C64.1586 319.975 61.636 318.85 62.1734 316.893C70.3148 287.25 71.6436 217.685 34.8316 135.441C1.71823 61.4608 17.6836 -8.66418 25.2315 -47.4561C28.5698 -49.3233 31.7812 -51.5046 34.8317 -54.0112Z" fill="#017B4E"/>
<path d="M84.5224 -49.8376C86.3682 -23.9267 91.4454 6.35556 102.779 38.0584C130.62 115.932 92.0719 218.004 81.5831 243.216C81.0012 244.615 79.4185 243.975 79.5032 242.374C80.7226 219.154 82.6955 138.981 58.1767 62.0331C47.4048 28.2258 49.4134 -7.94151 55.9641 -39.6578C66.1063 -40.2832 75.8014 -43.8052 84.5224 -49.8376Z" fill="#09A76D"/>
</g>
<g filter="url(#filter1_d_1627_17469)">
<path d="M336.113 585.677C334.638 586.65 333.26 587.727 331.986 588.889C328.307 587.003 324.053 585.93 319.606 585.93C315.964 585.93 312.464 586.618 309.297 587.894C317.804 574.807 333.251 543.699 315.639 510.088C296.236 473.06 311.842 440.315 320.078 427.175C320.557 426.411 321.895 426.89 321.61 427.723C317.292 440.347 316.587 469.972 336.113 504.996C353.677 536.502 345.208 566.365 341.205 582.885C339.434 583.681 337.731 584.61 336.113 585.677Z" fill="#017B4E"/>
<path d="M312.104 583.863C310.417 584.912 308.839 586.074 307.382 587.327C303.171 585.292 298.302 584.136 293.212 584.136C289.043 584.136 285.038 584.878 281.413 586.254C291.15 572.14 308.829 538.594 288.672 502.348C266.465 462.417 284.326 427.105 293.752 412.935C294.3 412.111 295.832 412.628 295.506 413.527C290.563 427.14 289.756 459.087 312.104 496.858C332.206 530.833 322.514 563.037 317.932 580.853C315.905 581.71 313.956 582.712 312.104 583.863Z" fill="#02905D"/>
<path d="M350.057 587.594C351.036 576.56 353.729 563.664 359.741 550.163C374.508 516.999 354.061 473.531 348.498 462.794C348.189 462.198 347.35 462.471 347.395 463.153C348.042 473.041 349.088 507.184 336.083 539.953C330.369 554.35 331.434 569.752 334.909 583.259C340.289 583.525 345.431 585.025 350.057 587.594Z" fill="#09A76D"/>
</g>
</g>
<path d="M65.057 359.359C51.1284 321.566 51.7649 344.973 53.8242 361.109C12.4874 371.374 36.6005 370.829 53.8242 369.274C38.5476 410.8 53.0754 388.521 62.2489 372.19C90.5556 403.918 79.2853 382.688 70.1118 368.107C99.3172 337.779 78.9109 349.638 65.057 359.359Z" fill="url(#paint1_radial_1627_17469)"/>
<defs>
<filter id="filter0_d_1627_17469" x="10.6934" y="-61.5542" width="105.999" height="388.636" filterUnits="userSpaceOnUse" color-interpolation-filters="sRGB">
<feFlood flood-opacity="0" result="BackgroundImageFix"/>
<feColorMatrix in="SourceAlpha" type="matrix" values="0 0 0 0 0 0 0 0 0 0 0 0 0 0 0 0 0 0 127 0" result="hardAlpha"/>
<feOffset dy="4"/>
<feGaussianBlur stdDeviation="2"/>
<feComposite in2="hardAlpha" operator="out"/>
<feColorMatrix type="matrix" values="0 0 0 0 0 0 0 0 0 0 0 0 0 0 0 0 0 0 0.25 0"/>
<feBlend mode="normal" in2="BackgroundImageFix" result="effect1_dropShadow_1627_17469"/>
<feBlend mode="normal" in="SourceGraphic" in2="effect1_dropShadow_1627_17469" result="shape"/>
</filter>
<filter id="filter1_d_1627_17469" x="274" y="412.521" width="94.9992" height="184.368" filterUnits="userSpaceOnUse" color-interpolation-filters="sRGB">
<feFlood flood-opacity="0" result="BackgroundImageFix"/>
<feColorMatrix in="SourceAlpha" type="matrix" values="0 0 0 0 0 0 0 0 0 0 0 0 0 0 0 0 0 0 127 0" result="hardAlpha"/>
<feOffset dy="4"/>
<feGaussianBlur stdDeviation="2"/>
<feComposite in2="hardAlpha" operator="out"/>
<feColorMatrix type="matrix" values="0 0 0 0 0 0 0 0 0 0 0 0 0 0 0 0 0 0 0.25 0"/>
<feBlend mode="normal" in2="BackgroundImageFix" result="effect1_dropShadow_1627_17469"/>
<feBlend mode="normal" in="SourceGraphic" in2="effect1_dropShadow_1627_17469" result="shape"/>
</filter>
<linearGradient id="paint0_linear_1627_17469" x1="180" y1="0" x2="180" y2="558" gradientUnits="userSpaceOnUse">
<stop offset="0.295" stop-color="#E2F6FF"/>
<stop offset="0.415" stop-color="#A1C5D6"/>
<stop offset="0.655" stop-color="#1F6483"/>
<stop offset="0.9" stop-color="#597682"/>
<stop offset="1" stop-color="#889499"/>
</linearGradient>
<radialGradient id="paint1_radial_1627_17469" cx="0" cy="0" r="1" gradientUnits="userSpaceOnUse" gradientTransform="translate(58 366) rotate(90) scale(27)">
<stop stop-color="#FFD5A4"/>
<stop offset="0.51" stop-color="#F8CEBF"/>
<stop offset="1" stop-color="#EFBD9F"/>
</radialGradient>
<clipPath id="clip0_1627_17469">
<rect width="360" height="558" rx="10" fill="white"/>
</clipPath>
</defs>
</svg>
