<svg width="360" height="558" viewBox="0 0 360 558" fill="none" xmlns="http://www.w3.org/2000/svg">
<g clip-path="url(#clip0_1627_17470)">
<rect width="360" height="558" rx="10" fill="url(#paint0_linear_1627_17470)"/>
<g filter="url(#filter0_d_1627_17470)">
<path d="M34.8317 -54.0112C37.6112 -56.2964 40.2098 -58.8255 42.6106 -61.5543C49.5472 -57.1237 57.5675 -54.6059 65.951 -54.6059C72.8182 -54.6059 79.4159 -56.2205 85.3869 -59.2171C69.3485 -28.4854 40.226 44.5617 73.4302 123.486C110.01 210.435 80.5883 287.325 65.0615 318.181C64.1586 319.975 61.636 318.85 62.1734 316.893C70.3148 287.25 71.6436 217.685 34.8316 135.441C1.71823 61.4608 17.6836 -8.66418 25.2315 -47.4561C28.5698 -49.3233 31.7812 -51.5046 34.8317 -54.0112Z" fill="#017B4E"/>
<path d="M84.5224 -49.8376C86.3682 -23.9267 91.4454 6.35556 102.779 38.0584C130.62 115.932 92.0719 218.004 81.5831 243.216C81.0012 244.615 79.4185 243.975 79.5032 242.374C80.7226 219.154 82.6955 138.981 58.1767 62.0331C47.4048 28.2258 49.4134 -7.94151 55.9641 -39.6578C66.1063 -40.2832 75.8014 -43.8052 84.5224 -49.8376Z" fill="#09A76D"/>
</g>
<g filter="url(#filter1_d_1627_17470)">
<path d="M336.113 585.677C334.638 586.65 333.26 587.727 331.986 588.889C328.307 587.003 324.053 585.93 319.606 585.93C315.964 585.93 312.464 586.618 309.297 587.894C317.804 574.807 333.251 543.699 315.639 510.088C296.236 473.06 311.842 440.315 320.078 427.175C320.557 426.411 321.895 426.89 321.61 427.723C317.292 440.347 316.587 469.972 336.113 504.996C353.677 536.502 345.208 566.365 341.205 582.885C339.434 583.681 337.731 584.61 336.113 585.677Z" fill="#017B4E"/>
<path d="M312.104 583.863C310.417 584.912 308.839 586.074 307.382 587.327C303.171 585.292 298.302 584.136 293.212 584.136C289.043 584.136 285.038 584.878 281.413 586.254C291.15 572.14 308.829 538.594 288.672 502.348C266.465 462.417 284.326 427.105 293.752 412.935C294.3 412.111 295.832 412.628 295.506 413.527C290.563 427.14 289.756 459.087 312.104 496.858C332.206 530.833 322.514 563.037 317.932 580.853C315.905 581.71 313.956 582.712 312.104 583.863Z" fill="#02905D"/>
<path d="M350.057 587.594C351.036 576.56 353.729 563.664 359.741 550.163C374.508 516.999 354.061 473.531 348.498 462.794C348.189 462.198 347.35 462.471 347.395 463.153C348.042 473.041 349.088 507.184 336.083 539.953C330.369 554.35 331.434 569.752 334.909 583.259C340.289 583.525 345.431 585.025 350.057 587.594Z" fill="#09A76D"/>
</g>
</g>
<path d="M284.191 113.059C271.711 114.804 272.215 129.302 274.027 136.332C274.405 137.496 272.767 140.373 271.9 141.666C270.716 144.095 267.299 144.894 265.239 145.035C264.796 145.066 264.348 145.033 263.925 144.9C261.184 144.035 260.065 141.154 259.846 139.726L259.137 129.786C259.029 127.918 258.563 126.48 258.064 125.482C257.519 124.393 256.876 123.303 256.122 122.346C254.095 119.771 250.375 120.129 248.141 120.849C247.746 120.976 247.039 121.401 246.754 121.703C245.81 122.704 246.499 124.329 247.874 124.368C248.352 124.381 248.849 124.303 249.209 124.211C252.685 123.362 254.844 126.289 255.752 128.441C255.988 129.002 256.078 129.609 256.106 130.216L256.51 138.909C256.528 139.292 256.506 139.675 256.506 140.058C256.508 142.976 258.882 145.574 260.5 146.852C260.843 147.123 261.18 147.403 261.514 147.684C265.779 151.266 270.957 148.13 273.082 146.029C273.316 145.738 273.531 145.49 273.728 145.284C275.585 143.335 275.846 148.416 274.743 150.871C274.415 151.601 274.07 152.293 273.791 152.817C272.755 154.766 269.274 156.997 267.238 158.108C266.882 158.303 266.508 158.469 266.108 158.539C263.844 158.935 261.369 157.622 259.766 156.417C259.003 155.843 258.489 155.02 258.002 154.198C256.276 151.282 253.808 149.96 252.335 149.543C251.989 149.444 251.639 149.361 251.287 149.284C249.573 148.907 247.824 149.28 246.648 149.712C245.976 149.959 245.274 150.183 244.686 150.59C242.655 151.995 241.516 156.044 241.173 158.151C240.878 159.664 240.997 160.631 241.256 161.221C241.584 161.968 242.551 162.464 243.305 162.154C244.289 161.749 244.659 159.971 244.719 158.878C244.529 156.551 245.743 154.838 246.373 154.272C250.521 150.549 254.459 154.645 256.308 157.783C256.636 158.339 256.984 158.89 257.441 159.346C262.35 164.25 267.721 162.731 270.359 161.004C270.768 160.736 271.178 160.47 271.595 160.214C275.058 158.09 277.395 153.779 278.366 151.295C278.537 150.859 278.636 150.397 278.713 149.935C279.319 146.276 279.931 148.802 280.173 150.635V156.696C280.003 159.3 277.045 160.932 275.126 161.594C274.713 161.737 274.276 161.789 273.855 161.908C272.01 162.431 270.145 164.398 269.153 165.702C268.929 165.996 268.739 166.317 268.601 166.66C267.461 169.488 268.441 171.919 269.357 173.17C269.612 173.518 269.882 173.858 270.183 174.167C271.618 175.633 274.067 175.752 275.209 175.606C276.986 175.606 278.395 176.2 279.188 176.691C279.546 176.912 279.891 177.159 280.212 177.43C282.174 179.089 281.761 181.991 281.129 183.732C280.981 184.139 280.813 184.543 280.744 184.971C280.484 186.576 281.169 187 281.591 187C284.454 186.827 284.529 182.538 284.122 179.718C284.029 179.077 284.02 178.418 283.874 177.786C283.351 175.517 280.554 174.201 278.519 173.642C277.897 173.471 277.245 173.465 276.6 173.46C273.53 173.437 271.993 172.047 271.341 170.776C270.949 170.012 270.629 169.111 270.844 168.28C271.152 167.091 272.47 165.916 273.658 165.11C274.35 164.641 275.164 164.408 275.97 164.185C276.907 163.925 277.746 163.567 278.425 163.216C279.467 162.677 280.664 162.259 281.454 161.392C283.559 159.081 283.131 153.092 282.536 149.908C282.158 146.029 282.851 147.807 283.245 149.181L283.985 152.595C284.122 153.226 284.168 153.872 284.168 154.516C284.17 157.074 284.663 158.978 285.126 160.112C285.393 160.767 285.681 161.433 286.115 161.991C287.458 163.72 290.606 164.662 292.227 164.939C293.811 165.156 295.42 165.937 296.724 166.768C298.335 167.794 300.183 169.053 300.59 170.919C300.808 171.92 300.915 173.076 300.954 174.037C300.977 174.596 300.921 175.158 300.754 175.692C300.179 177.539 299.359 178.181 298.734 178.309C298.338 178.39 297.966 178.155 297.594 177.999C297.536 177.975 297.48 177.953 297.426 177.934C296.352 177.546 295.255 178.779 295.949 179.685C296.627 180.57 298.284 180.753 299.318 180.697C302.719 180.198 303.704 176.7 303.818 174.285C303.852 173.553 303.933 172.818 303.925 172.085C303.896 169.545 301.915 167.084 300.43 165.725C300.018 165.348 299.618 164.949 299.155 164.637C297.942 163.818 295.64 162.959 293.907 162.399C293.111 162.142 292.263 162.106 291.441 161.957C289.429 161.591 288.209 160.076 287.613 158.832C287.33 158.24 287.245 157.576 287.148 156.927C287.042 156.212 286.887 155.3 286.791 154.757C285.606 149.725 286.856 151.562 287.866 153.567C288.101 154.032 288.357 154.491 288.714 154.87C290.797 157.079 293.629 157.218 295.576 156.847L295.624 156.837C296.541 156.662 297.485 156.482 298.336 156.101C300.566 155.101 303.402 152.221 304.754 150.635C306.436 148.439 308.438 148.738 309.684 149.403C310.211 149.685 310.721 150.017 311.171 150.41C312.314 151.409 312.541 152.925 312.464 154.061C312.421 154.691 312.311 155.327 312.085 155.916C312.006 156.123 311.914 156.337 311.819 156.542C311.543 157.137 311.108 157.639 310.74 158.183C310.501 158.537 310.427 158.777 310.427 158.878C310.276 161.041 311.415 161.194 312.363 160.881C312.825 160.728 313.22 160.42 313.539 160.052C316.153 157.039 315.424 151.952 314.681 149.666C313.547 146.369 310.112 145.706 308.536 145.787C305.51 145.787 303.178 147.888 302.39 148.938C301.067 151.072 298.057 152.575 296.718 153.06C293.692 154.223 291.203 152.575 290.336 151.605C288.445 149.472 287.972 145.868 287.972 144.332C287.972 142.587 288.918 142.958 289.391 143.363C290.809 144.413 294.638 146.272 298.609 145.302C302.58 144.332 305.306 138.918 306.172 136.332C307.685 133.229 308.221 130.352 308.299 129.302C308.489 127.168 309.166 125.827 309.481 125.423C312.048 122.635 313.781 124.196 314.656 126.008C315.071 126.867 315.411 127.796 316.12 128.436C318.312 130.414 320.575 129.591 321.536 128.817C323.05 127.828 323.153 126.866 322.884 126.228C322.704 125.8 322.358 125.379 321.898 125.314C321.53 125.262 321.112 125.431 320.722 125.684C319.923 126.202 319.096 127.072 318.267 126.605C317.803 126.343 317.408 125.857 317.104 125.348C316.678 124.633 316.649 123.753 316.327 122.985C315.957 122.105 315.227 121.464 314.538 121.052C313.886 120.662 313.108 120.548 312.355 120.648C307.874 121.242 305.9 125.27 305.463 127.362C304.329 134.732 301.209 138.837 299.79 139.968C293.354 145.5 291.092 139.281 290.648 134.6C290.575 133.821 290.69 133.031 290.893 132.275C295.36 115.631 288.351 112.506 284.191 113.059Z" fill="#F1915D"/>
<ellipse cx="278.321" cy="134.672" rx="1.57692" ry="1.58571" fill="#5C202B"/>
<ellipse cx="284.628" cy="134.672" rx="1.57692" ry="1.58571" fill="#5C202B"/>
<ellipse cx="287.519" cy="121.878" rx="1.3141" ry="1.25253" fill="#FDA777"/>
<ellipse cx="287.519" cy="118.371" rx="1.3141" ry="1.25253" fill="#DE7C47"/>
<ellipse cx="286.1" cy="124.934" rx="0.788462" ry="0.75152" fill="#FEA577"/>
<ellipse cx="284.103" cy="119.624" rx="1.05128" ry="1.00203" fill="#EB7D4A"/>
<ellipse cx="287.783" cy="115.616" rx="0.525641" ry="0.501013" fill="#F79B68"/>
<ellipse cx="284.628" cy="116.617" rx="0.525641" ry="0.501013" fill="#EE7C42"/>
<ellipse cx="290.936" cy="120.626" rx="0.525641" ry="0.501013" fill="#E97C43"/>
<path d="M276.576 150.871C276.576 151.171 276.334 151.413 276.037 151.413C275.741 151.413 275.499 151.171 275.499 150.871C275.499 150.57 275.741 150.329 276.037 150.329C276.334 150.329 276.576 150.57 276.576 150.871Z" stroke="#DA692E" stroke-width="0.33215"/>
<path d="M274.416 154.743C274.416 155.043 274.175 155.285 273.878 155.285C273.582 155.285 273.34 155.043 273.34 154.743C273.34 154.443 273.582 154.201 273.878 154.201C274.175 154.201 274.416 154.443 274.416 154.743Z" stroke="#DA692E" stroke-width="0.33215"/>
<path d="M271.223 157.813C271.223 158.113 270.981 158.355 270.685 158.355C270.388 158.355 270.146 158.113 270.146 157.813C270.146 157.512 270.388 157.27 270.685 157.27C270.981 157.27 271.223 157.512 271.223 157.813Z" stroke="#DA692E" stroke-width="0.33215"/>
<path d="M267.749 160.079C267.749 160.379 267.507 160.621 267.211 160.621C266.914 160.621 266.673 160.379 266.673 160.079C266.673 159.779 266.914 159.537 267.211 159.537C267.507 159.537 267.749 159.779 267.749 160.079Z" stroke="#DA692E" stroke-width="0.33215"/>
<path d="M255.679 154.648C255.679 154.949 255.438 155.191 255.141 155.191C254.845 155.191 254.603 154.949 254.603 154.648C254.603 154.348 254.845 154.106 255.141 154.106C255.438 154.106 255.679 154.348 255.679 154.648Z" stroke="#DA692E" stroke-width="0.33215"/>
<path d="M252.581 151.769C252.581 152.069 252.339 152.311 252.043 152.311C251.747 152.311 251.505 152.069 251.505 151.769C251.505 151.469 251.747 151.227 252.043 151.227C252.339 151.227 252.581 151.469 252.581 151.769Z" stroke="#DA692E" stroke-width="0.33215"/>
<path d="M247.743 151.344C247.743 151.644 247.502 151.886 247.205 151.886C246.909 151.886 246.667 151.644 246.667 151.344C246.667 151.043 246.909 150.801 247.205 150.801C247.502 150.801 247.743 151.043 247.743 151.344Z" stroke="#DA692E" stroke-width="0.33215"/>
<path d="M244.174 154.791C244.174 155.091 243.933 155.333 243.636 155.333C243.34 155.333 243.098 155.091 243.098 154.791C243.098 154.49 243.34 154.249 243.636 154.249C243.933 154.249 244.174 154.49 244.174 154.791Z" stroke="#DA692E" stroke-width="0.33215"/>
<path d="M243.048 159.229C243.048 159.53 242.806 159.772 242.51 159.772C242.213 159.772 241.971 159.53 241.971 159.229C241.971 158.929 242.213 158.687 242.51 158.687C242.806 158.687 243.048 158.929 243.048 159.229Z" stroke="#DA692E" stroke-width="0.33215"/>
<path d="M258.873 158.332C258.873 158.632 258.631 158.874 258.335 158.874C258.038 158.874 257.796 158.632 257.796 158.332C257.796 158.032 258.038 157.79 258.335 157.79C258.631 157.79 258.873 158.032 258.873 158.332Z" stroke="#DA692E" stroke-width="0.33215"/>
<path d="M263.005 160.314C263.005 160.615 262.763 160.857 262.467 160.857C262.171 160.857 261.929 160.615 261.929 160.314C261.929 160.014 262.171 159.772 262.467 159.772C262.763 159.772 263.005 160.014 263.005 160.314Z" stroke="#DA692E" stroke-width="0.33215"/>
<path d="M288.456 150.369C288.456 150.803 288.106 151.154 287.677 151.154C287.247 151.154 286.898 150.803 286.898 150.369C286.898 149.935 287.247 149.585 287.677 149.585C288.106 149.585 288.456 149.935 288.456 150.369Z" stroke="#FEB78C" stroke-width="0.334619"/>
<path d="M291.293 153.699C291.293 154.133 290.943 154.483 290.514 154.483C290.085 154.483 289.735 154.133 289.735 153.699C289.735 153.265 290.085 152.915 290.514 152.915C290.943 152.915 291.293 153.265 291.293 153.699Z" stroke="#FEB78C" stroke-width="0.334619"/>
<path d="M296.026 155.127C296.026 155.561 295.676 155.911 295.247 155.911C294.818 155.911 294.468 155.561 294.468 155.127C294.468 154.693 294.818 154.342 295.247 154.342C295.676 154.342 296.026 154.693 296.026 155.127Z" stroke="#FEB78C" stroke-width="0.334619"/>
<path d="M300.282 153.225C300.282 153.658 299.933 154.009 299.503 154.009C299.074 154.009 298.725 153.658 298.725 153.225C298.725 152.791 299.074 152.44 299.503 152.44C299.933 152.44 300.282 152.791 300.282 153.225Z" stroke="#FEB78C" stroke-width="0.334619"/>
<path d="M304.067 150.369C304.067 150.803 303.717 151.154 303.288 151.154C302.859 151.154 302.509 150.803 302.509 150.369C302.509 149.935 302.859 149.585 303.288 149.585C303.717 149.585 304.067 149.935 304.067 150.369Z" stroke="#FEB78C" stroke-width="0.334619"/>
<path d="M308.325 147.515C308.325 147.949 307.975 148.299 307.546 148.299C307.117 148.299 306.767 147.949 306.767 147.515C306.767 147.081 307.117 146.731 307.546 146.731C307.975 146.731 308.325 147.081 308.325 147.515Z" stroke="#FEB78C" stroke-width="0.334619"/>
<path d="M313.056 148.942C313.056 149.376 312.707 149.726 312.277 149.726C311.848 149.726 311.498 149.376 311.498 148.942C311.498 148.508 311.848 148.158 312.277 148.158C312.707 148.158 313.056 148.508 313.056 148.942Z" stroke="#FEB78C" stroke-width="0.334619"/>
<path d="M314.948 153.225C314.948 153.658 314.598 154.009 314.169 154.009C313.74 154.009 313.39 153.658 313.39 153.225C313.39 152.791 313.74 152.44 314.169 152.44C314.598 152.44 314.948 152.791 314.948 153.225Z" stroke="#FEB78C" stroke-width="0.334619"/>
<path d="M313.056 158.456C313.056 158.89 312.707 159.24 312.277 159.24C311.848 159.24 311.498 158.89 311.498 158.456C311.498 158.022 311.848 157.672 312.277 157.672C312.707 157.672 313.056 158.022 313.056 158.456Z" stroke="#FEB78C" stroke-width="0.334619"/>
<defs>
<filter id="filter0_d_1627_17470" x="10.6934" y="-61.5542" width="105.999" height="388.636" filterUnits="userSpaceOnUse" color-interpolation-filters="sRGB">
<feFlood flood-opacity="0" result="BackgroundImageFix"/>
<feColorMatrix in="SourceAlpha" type="matrix" values="0 0 0 0 0 0 0 0 0 0 0 0 0 0 0 0 0 0 127 0" result="hardAlpha"/>
<feOffset dy="4"/>
<feGaussianBlur stdDeviation="2"/>
<feComposite in2="hardAlpha" operator="out"/>
<feColorMatrix type="matrix" values="0 0 0 0 0 0 0 0 0 0 0 0 0 0 0 0 0 0 0.25 0"/>
<feBlend mode="normal" in2="BackgroundImageFix" result="effect1_dropShadow_1627_17470"/>
<feBlend mode="normal" in="SourceGraphic" in2="effect1_dropShadow_1627_17470" result="shape"/>
</filter>
<filter id="filter1_d_1627_17470" x="274" y="412.521" width="94.9992" height="184.368" filterUnits="userSpaceOnUse" color-interpolation-filters="sRGB">
<feFlood flood-opacity="0" result="BackgroundImageFix"/>
<feColorMatrix in="SourceAlpha" type="matrix" values="0 0 0 0 0 0 0 0 0 0 0 0 0 0 0 0 0 0 127 0" result="hardAlpha"/>
<feOffset dy="4"/>
<feGaussianBlur stdDeviation="2"/>
<feComposite in2="hardAlpha" operator="out"/>
<feColorMatrix type="matrix" values="0 0 0 0 0 0 0 0 0 0 0 0 0 0 0 0 0 0 0.25 0"/>
<feBlend mode="normal" in2="BackgroundImageFix" result="effect1_dropShadow_1627_17470"/>
<feBlend mode="normal" in="SourceGraphic" in2="effect1_dropShadow_1627_17470" result="shape"/>
</filter>
<linearGradient id="paint0_linear_1627_17470" x1="180" y1="0" x2="180" y2="558" gradientUnits="userSpaceOnUse">
<stop offset="0.295" stop-color="#E2F6FF"/>
<stop offset="0.415" stop-color="#A1C5D6"/>
<stop offset="0.655" stop-color="#1F6483"/>
<stop offset="0.9" stop-color="#597682"/>
<stop offset="1" stop-color="#889499"/>
</linearGradient>
<clipPath id="clip0_1627_17470">
<rect width="360" height="558" rx="10" fill="white"/>
</clipPath>
</defs>
</svg>
