<svg width="360" height="363" viewBox="0 0 360 363" fill="none" xmlns="http://www.w3.org/2000/svg">
<path d="M284.191 0.0587352C271.711 1.80423 272.215 16.3016 274.027 23.3321C274.405 24.4957 272.767 27.3726 271.9 28.6655C270.716 31.0947 267.299 31.8939 265.239 32.0353C264.796 32.0658 264.348 32.0333 263.925 31.8996C261.184 31.0346 260.065 28.1537 259.846 26.7261L259.137 16.7864C259.029 14.9177 258.563 13.48 258.064 12.482C257.519 11.3927 256.876 10.3029 256.122 9.34607C254.095 6.77124 250.375 7.12926 248.141 7.84904C247.746 7.97641 247.039 8.40127 246.754 8.70331C245.81 9.70356 246.499 11.3287 247.874 11.3676C248.352 11.3812 248.849 11.3029 249.209 11.2105C252.685 10.3618 254.844 13.2888 255.752 15.4411C255.988 16.0015 256.078 16.6087 256.106 17.2162L256.51 25.9094C256.528 26.2917 256.506 26.6751 256.506 27.0577C256.508 29.9761 258.882 32.5744 260.5 33.8519C260.843 34.1226 261.18 34.4032 261.514 34.6841C265.779 38.2659 270.957 35.1305 273.082 33.0293C273.316 32.7375 273.531 32.4905 273.728 32.2836C275.585 30.335 275.846 35.4158 274.743 37.8708C274.415 38.6007 274.07 39.2927 273.791 39.8173C272.755 41.7656 269.274 43.997 267.238 45.1081C266.882 45.3025 266.508 45.4687 266.108 45.5388C263.844 45.9352 261.369 44.6218 259.766 43.4167C259.003 42.8427 258.489 42.0196 258.002 41.1978C256.276 38.2819 253.808 36.96 252.335 36.5426C251.989 36.4445 251.639 36.3613 251.287 36.284C249.573 35.9074 247.824 36.2799 246.648 36.7119C245.976 36.9588 245.274 37.1827 244.686 37.59C242.655 38.9955 241.516 43.0437 241.173 45.1508C240.878 46.6639 240.997 47.6305 241.256 48.2211C241.584 48.9681 242.551 49.4635 243.305 49.1535C244.289 48.7495 244.659 46.9714 244.719 45.8781C244.529 43.5507 245.743 41.8376 246.373 41.2719C250.521 37.549 254.459 41.6449 256.308 44.7833C256.636 45.3393 256.984 45.8904 257.441 46.3465C262.35 51.2497 267.721 49.7307 270.359 48.0036C270.768 47.7355 271.178 47.4702 271.595 47.2143C275.058 45.0899 277.395 40.7787 278.366 38.2951C278.537 37.8587 278.636 37.3974 278.713 36.9351C279.319 33.2761 279.931 35.8023 280.173 37.6354V43.6962C280.003 46.2997 277.045 47.9324 275.126 48.5943C274.713 48.7368 274.276 48.7888 273.855 48.9079C272.01 49.4305 270.145 51.3981 269.153 52.7019C268.929 52.9964 268.739 53.3166 268.601 53.6597C267.461 56.4877 268.441 58.9188 269.357 60.1701C269.612 60.5181 269.882 60.8585 270.183 61.1667C271.618 62.6333 274.067 62.7522 275.209 62.6058C276.986 62.6058 278.395 63.2004 279.188 63.6912C279.546 63.9124 279.891 64.1587 280.212 64.4301C282.174 66.0893 281.761 68.9912 281.129 70.7317C280.981 71.1391 280.813 71.543 280.744 71.9709C280.484 73.5758 281.169 74 281.591 74C284.454 73.8272 284.529 69.5381 284.122 66.7182C284.029 66.0765 284.02 65.4183 283.874 64.7865C283.351 62.5166 280.554 61.201 278.519 60.6422C277.897 60.4714 277.245 60.4647 276.6 60.46C273.53 60.4373 271.993 59.0467 271.341 57.7763C270.949 57.012 270.629 56.111 270.844 55.2796C271.152 54.0912 272.47 52.9162 273.658 52.1104C274.35 51.6411 275.164 51.4083 275.97 51.1848C276.907 50.9248 277.746 50.5672 278.425 50.2157C279.467 49.6767 280.664 49.2592 281.454 48.3921C283.559 46.0814 283.131 40.0921 282.536 36.9081C282.158 33.0293 282.851 34.8071 283.245 36.1809L283.985 39.5954C284.122 40.2255 284.168 40.8718 284.168 41.5165C284.17 44.0743 284.663 45.978 285.126 47.1123C285.393 47.7666 285.681 48.4332 286.115 48.9913C287.458 50.72 290.606 51.6618 292.227 51.9388C293.811 52.1555 295.42 52.9371 296.724 53.768C298.335 54.794 300.183 56.0533 300.59 57.9189C300.808 58.9198 300.915 60.0763 300.954 61.0372C300.977 61.5963 300.921 62.1582 300.754 62.6925C300.179 64.5391 299.359 65.1811 298.734 65.3091C298.338 65.3901 297.966 65.1551 297.594 64.9991C297.536 64.9752 297.48 64.9534 297.426 64.9337C296.352 64.5462 295.255 65.7789 295.949 66.6849C296.627 67.5696 298.284 67.7526 299.318 67.6968C302.719 67.1984 303.704 63.7001 303.818 61.2847C303.852 60.5529 303.933 59.8175 303.925 59.085C303.896 56.5447 301.915 54.084 300.43 52.7251C300.018 52.348 299.618 51.9492 299.155 51.6366C297.942 50.8178 295.64 49.9586 293.907 49.3992C293.111 49.1423 292.263 49.1063 291.441 48.9566C289.429 48.5907 288.209 47.0759 287.613 45.8319C287.33 45.2397 287.245 44.5763 287.148 43.9269C287.042 43.2116 286.887 42.3 286.791 41.7568C285.606 36.7249 286.856 38.5621 287.866 40.5674C288.101 41.0325 288.357 41.4912 288.714 41.8701C290.797 44.0794 293.629 44.2182 295.576 43.8465L295.624 43.8374C296.541 43.6624 297.485 43.4823 298.336 43.1007C300.566 42.101 303.402 39.2205 304.754 37.6354C306.436 35.4394 308.438 35.7384 309.684 36.4033C310.211 36.6848 310.721 37.0167 311.171 37.4103C312.314 38.4093 312.541 39.9251 312.464 41.0614C312.421 41.6913 312.311 42.3269 312.085 42.9165C312.006 43.1228 311.914 43.3367 311.819 43.5416C311.543 44.1373 311.108 44.6387 310.74 45.1825C310.501 45.5374 310.427 45.7771 310.427 45.8781C310.276 48.0407 311.415 48.1937 312.363 47.8807C312.825 47.7278 313.22 47.4196 313.539 47.0516C316.153 44.0393 315.424 38.9516 314.681 36.6657C313.547 33.3687 310.112 32.706 308.536 32.7868C305.51 32.7868 303.178 34.8879 302.39 35.9384C301.067 38.0718 298.057 39.5749 296.718 40.0597C293.692 41.2234 291.203 39.5749 290.336 38.6052C288.445 36.4718 287.972 32.8676 287.972 31.3322C287.972 29.5867 288.918 29.9585 289.391 30.3625C290.809 31.4131 294.638 33.2717 298.609 32.302C302.58 31.3322 305.306 25.918 306.172 23.332C307.685 20.2289 308.221 17.3521 308.299 16.3016C308.489 14.1682 309.166 12.8267 309.481 12.4227C312.048 9.63532 313.781 11.196 314.656 13.0078C315.071 13.8675 315.411 14.7961 316.12 15.4357C318.312 17.4141 320.575 16.5909 321.536 15.8167C323.05 14.8284 323.153 13.8657 322.884 13.2281C322.704 12.8002 322.358 12.3788 321.898 12.3136C321.53 12.2615 321.112 12.431 320.722 12.6841C319.923 13.2022 319.096 14.0724 318.267 13.6047C317.803 13.3428 317.408 12.857 317.104 12.3476C316.678 11.6325 316.649 10.7528 316.327 9.98527C315.957 9.10461 315.227 8.46439 314.538 8.05192C313.886 7.66197 313.108 7.54823 312.355 7.64801C307.874 8.24217 305.9 12.2697 305.463 14.3621C304.329 21.732 301.209 25.8372 299.79 26.9685C293.354 32.4997 291.092 26.2807 290.648 21.6005C290.575 20.8211 290.69 20.0309 290.893 19.2748C295.36 2.63096 288.351 -0.494447 284.191 0.0587352Z" fill="#F1915D"/>
<ellipse cx="278.321" cy="21.6718" rx="1.57692" ry="1.58571" fill="#5C202B"/>
<ellipse cx="284.628" cy="21.6718" rx="1.57692" ry="1.58571" fill="#5C202B"/>
<ellipse cx="287.519" cy="8.87827" rx="1.3141" ry="1.25253" fill="#FDA777"/>
<ellipse cx="287.519" cy="5.37131" rx="1.3141" ry="1.25253" fill="#DE7C47"/>
<ellipse cx="286.1" cy="11.9341" rx="0.788462" ry="0.75152" fill="#FEA577"/>
<ellipse cx="284.103" cy="6.62361" rx="1.05128" ry="1.00203" fill="#EB7D4A"/>
<ellipse cx="287.783" cy="2.61564" rx="0.525641" ry="0.501013" fill="#F79B68"/>
<ellipse cx="284.628" cy="3.61735" rx="0.525641" ry="0.501013" fill="#EE7C42"/>
<ellipse cx="290.936" cy="7.62552" rx="0.525641" ry="0.501013" fill="#E97C43"/>
<path d="M276.576 37.8708C276.576 38.1711 276.334 38.413 276.037 38.413C275.741 38.413 275.499 38.1711 275.499 37.8708C275.499 37.5704 275.741 37.3286 276.037 37.3286C276.334 37.3286 276.576 37.5704 276.576 37.8708Z" stroke="#DA692E" stroke-width="0.33215"/>
<path d="M274.416 41.7429C274.416 42.0432 274.175 42.2851 273.878 42.2851C273.582 42.2851 273.34 42.0432 273.34 41.7429C273.34 41.4425 273.582 41.2006 273.878 41.2006C274.175 41.2006 274.416 41.4425 274.416 41.7429Z" stroke="#DA692E" stroke-width="0.33215"/>
<path d="M271.223 44.8126C271.223 45.1129 270.981 45.3548 270.685 45.3548C270.388 45.3548 270.146 45.1129 270.146 44.8126C270.146 44.5122 270.388 44.2703 270.685 44.2703C270.981 44.2703 271.223 44.5122 271.223 44.8126Z" stroke="#DA692E" stroke-width="0.33215"/>
<path d="M267.749 47.079C267.749 47.3794 267.507 47.6213 267.211 47.6213C266.914 47.6213 266.673 47.3794 266.673 47.079C266.673 46.7787 266.914 46.5368 267.211 46.5368C267.507 46.5368 267.749 46.7787 267.749 47.079Z" stroke="#DA692E" stroke-width="0.33215"/>
<path d="M255.679 41.6485C255.679 41.9488 255.438 42.1907 255.141 42.1907C254.845 42.1907 254.603 41.9488 254.603 41.6485C254.603 41.3482 254.845 41.1063 255.141 41.1063C255.438 41.1063 255.679 41.3482 255.679 41.6485Z" stroke="#DA692E" stroke-width="0.33215"/>
<path d="M252.581 38.7691C252.581 39.0694 252.339 39.3113 252.043 39.3113C251.747 39.3113 251.505 39.0694 251.505 38.7691C251.505 38.4688 251.747 38.2269 252.043 38.2269C252.339 38.2269 252.581 38.4688 252.581 38.7691Z" stroke="#DA692E" stroke-width="0.33215"/>
<path d="M247.743 38.3436C247.743 38.6439 247.502 38.8858 247.205 38.8858C246.909 38.8858 246.667 38.6439 246.667 38.3436C246.667 38.0432 246.909 37.8013 247.205 37.8013C247.502 37.8013 247.743 38.0432 247.743 38.3436Z" stroke="#DA692E" stroke-width="0.33215"/>
<path d="M244.174 41.7908C244.174 42.0912 243.933 42.3331 243.636 42.3331C243.34 42.3331 243.098 42.0912 243.098 41.7908C243.098 41.4905 243.34 41.2486 243.636 41.2486C243.933 41.2486 244.174 41.4905 244.174 41.7908Z" stroke="#DA692E" stroke-width="0.33215"/>
<path d="M243.048 46.2294C243.048 46.5298 242.806 46.7717 242.51 46.7717C242.213 46.7717 241.971 46.5298 241.971 46.2294C241.971 45.9291 242.213 45.6872 242.51 45.6872C242.806 45.6872 243.048 45.9291 243.048 46.2294Z" stroke="#DA692E" stroke-width="0.33215"/>
<path d="M258.873 45.3318C258.873 45.6322 258.631 45.8741 258.335 45.8741C258.038 45.8741 257.796 45.6322 257.796 45.3318C257.796 45.0315 258.038 44.7896 258.335 44.7896C258.631 44.7896 258.873 45.0315 258.873 45.3318Z" stroke="#DA692E" stroke-width="0.33215"/>
<path d="M263.005 47.3144C263.005 47.6147 262.763 47.8566 262.467 47.8566C262.171 47.8566 261.929 47.6147 261.929 47.3144C261.929 47.0141 262.171 46.7722 262.467 46.7722C262.763 46.7722 263.005 47.0141 263.005 47.3144Z" stroke="#DA692E" stroke-width="0.33215"/>
<path d="M288.456 37.3694C288.456 37.8033 288.106 38.1535 287.677 38.1535C287.247 38.1535 286.898 37.8033 286.898 37.3694C286.898 36.9355 287.247 36.5853 287.677 36.5853C288.106 36.5853 288.456 36.9355 288.456 37.3694Z" stroke="#FEB78C" stroke-width="0.334619"/>
<path d="M291.293 40.6994C291.293 41.1333 290.943 41.4835 290.514 41.4835C290.085 41.4835 289.735 41.1333 289.735 40.6994C289.735 40.2654 290.085 39.9152 290.514 39.9152C290.943 39.9152 291.293 40.2654 291.293 40.6994Z" stroke="#FEB78C" stroke-width="0.334619"/>
<path d="M296.026 42.1266C296.026 42.5605 295.676 42.9107 295.247 42.9107C294.818 42.9107 294.468 42.5605 294.468 42.1266C294.468 41.6927 294.818 41.3425 295.247 41.3425C295.676 41.3425 296.026 41.6927 296.026 42.1266Z" stroke="#FEB78C" stroke-width="0.334619"/>
<path d="M300.282 40.2245C300.282 40.6584 299.933 41.0086 299.503 41.0086C299.074 41.0086 298.725 40.6584 298.725 40.2245C298.725 39.7906 299.074 39.4404 299.503 39.4404C299.933 39.4404 300.282 39.7906 300.282 40.2245Z" stroke="#FEB78C" stroke-width="0.334619"/>
<path d="M304.067 37.3694C304.067 37.8033 303.717 38.1535 303.288 38.1535C302.859 38.1535 302.509 37.8033 302.509 37.3694C302.509 36.9355 302.859 36.5853 303.288 36.5853C303.717 36.5853 304.067 36.9355 304.067 37.3694Z" stroke="#FEB78C" stroke-width="0.334619"/>
<path d="M308.325 34.5149C308.325 34.9489 307.975 35.299 307.546 35.299C307.117 35.299 306.767 34.9489 306.767 34.5149C306.767 34.081 307.117 33.7308 307.546 33.7308C307.975 33.7308 308.325 34.081 308.325 34.5149Z" stroke="#FEB78C" stroke-width="0.334619"/>
<path d="M313.056 35.9422C313.056 36.3761 312.707 36.7263 312.277 36.7263C311.848 36.7263 311.498 36.3761 311.498 35.9422C311.498 35.5082 311.848 35.158 312.277 35.158C312.707 35.158 313.056 35.5082 313.056 35.9422Z" stroke="#FEB78C" stroke-width="0.334619"/>
<path d="M314.948 40.2245C314.948 40.6584 314.598 41.0086 314.169 41.0086C313.74 41.0086 313.39 40.6584 313.39 40.2245C313.39 39.7906 313.74 39.4404 314.169 39.4404C314.598 39.4404 314.948 39.7906 314.948 40.2245Z" stroke="#FEB78C" stroke-width="0.334619"/>
<path d="M313.056 45.4558C313.056 45.8898 312.707 46.24 312.277 46.24C311.848 46.24 311.498 45.8898 311.498 45.4558C311.498 45.0219 311.848 44.6717 312.277 44.6717C312.707 44.6717 313.056 45.0219 313.056 45.4558Z" stroke="#FEB78C" stroke-width="0.334619"/>
<path d="M92.2609 285.235C92.0294 288.86 93.0479 297.297 98.9737 302.043C95.8873 303.691 90.1313 308.618 91.7979 315.143C91.7208 317.45 92.8627 322.904 98.0478 326.266C106.304 329.479 126.797 334.521 142.723 328.985H221.887C238.09 330.468 269.895 330.221 267.488 317.368C268.105 316.461 268.969 313.413 267.488 308.469C277.518 303.031 296.885 290.376 294.107 283.258L287.214 279.774" stroke="white" stroke-width="0.70851" stroke-linecap="round"/>
<g filter="url(#filter0_d_1627_17497)">
<path d="M274.738 264.058C275.662 244.647 257.87 236.235 248.859 234.456C254.959 226.886 266.035 231.949 270.81 235.427C281.532 242.997 285.752 255.404 286.523 260.661C290.22 276.384 283.596 290.506 279.822 295.601C272.797 305.113 261.953 308.138 257.408 308.461L241.234 306.278L242.851 281.043L257.408 282.499C270.533 284.828 274.43 271.176 274.738 264.058Z" fill="#9B7963"/>
<path d="M133.095 188.299C140.721 172.527 140.952 168.645 140.721 163.064C168.141 163.226 222.795 163.55 222.056 163.55C221.132 163.55 222.518 177.38 229.45 187.814C236.382 198.247 234.996 198.49 237.306 204.313C239.617 210.137 235.92 225.666 234.996 225.666C234.071 225.666 235.92 242.165 235.227 245.319C234.672 247.843 236.69 252.356 237.768 254.297C232.777 254.491 228.141 259.393 226.446 261.819C198.795 268.208 142.708 278.755 139.565 269.826C136.423 260.897 124.392 255.106 118.769 253.327C122.852 247.18 130.138 232.459 126.626 222.754C123.113 213.048 124.854 204.313 126.163 201.159C127.473 198.652 130.692 192.569 133.095 188.299Z" fill="#9B7963" stroke="#9B7963" stroke-width="0.354255"/>
<path d="M103.145 304.404C91.7588 291.961 94.3565 274.756 97.0786 267.708C103.834 256.368 111.224 252.966 118.078 253.718C119.385 252.441 121.267 249.066 122.044 247.538C126.711 240.733 127.411 229.798 127.178 225.18H235.441C235.596 231.742 235.907 245.205 235.907 246.566C235.907 247.927 237.774 251.993 238.707 253.856C244.618 252.56 257.607 253.759 262.273 268.923C266.94 284.088 260.329 296.789 256.44 301.245C245.24 295.412 234.507 299.787 230.541 302.703C226.574 306.429 218.455 314.368 217.708 316.312C216.961 318.256 209.308 320.362 205.575 321.172C188.853 320.929 156.064 321.071 155.508 321.266C154.815 321.508 150.743 319.471 148.177 318.256C148.41 318.823 145.984 316.992 134.411 305.133C122.838 293.274 108.745 299.706 103.145 304.404Z" fill="#9B7963"/>
<rect x="143.723" y="320.829" width="61.9257" height="0.485291" fill="#9B7963"/>
<path d="M96.6652 312.275C98.2907 303.086 106.825 299.159 110.888 298.345C115.358 297.758 120.54 298.1 122.572 298.345C127.042 298.54 134.085 303.966 137.049 306.654C140.909 311.542 145.599 315.534 147.462 316.919C151.119 319.656 154.743 320.504 156.097 320.585L170.066 321.318H162.701H158.129H143.652C141.62 321.709 140.266 321.807 139.842 321.807L133.747 323.273C131.207 324.495 125.365 324.74 123.587 324.495C122.165 324.3 121.302 323.599 121.048 323.273C119.829 324.251 119.016 324.495 118.762 324.495C115.917 324.886 113.682 324.658 112.92 324.495C111.701 324.3 110.55 323.762 110.126 323.518C109.72 324.104 109.11 324.414 108.856 324.495C106.012 325.082 103.099 323.925 101.999 323.273C96.9192 319.95 96.3266 314.557 96.6652 312.275Z" fill="#9B7963"/>
<path d="M120.946 323.158C117.789 319.681 113.414 310.881 121.177 303.505" stroke="#5A4335" stroke-width="0.247978" stroke-linecap="round"/>
<path d="M264.261 312.275C262.605 303.086 253.91 299.159 249.77 298.345C245.215 297.758 239.936 298.1 237.866 298.345C233.312 298.54 226.135 303.966 223.116 306.654C219.182 311.542 214.404 315.534 212.506 316.919C208.78 319.656 205.088 320.503 203.708 320.585L189.475 321.318H196.98H201.637H216.388C218.458 321.709 219.838 321.807 220.269 321.807L226.48 323.273C229.068 324.495 235.02 324.74 236.831 324.495C238.28 324.3 239.16 323.599 239.419 323.273C240.661 324.251 241.489 324.495 241.748 324.495C244.646 324.886 246.923 324.658 247.7 324.495C248.942 324.3 250.115 323.762 250.546 323.518C250.96 324.104 251.581 324.414 251.84 324.495C254.738 325.082 257.706 323.925 258.827 323.273C264.002 319.949 264.606 314.556 264.261 312.275Z" fill="#9B7963"/>
<path d="M250.667 323.401C253.884 319.923 258.341 311.123 250.432 303.747" stroke="#5A4335" stroke-width="0.247978" stroke-linecap="round"/>
<path d="M239.529 323.158C242.746 319.681 247.203 310.881 239.294 303.505" stroke="#5A4335" stroke-width="0.247978" stroke-linecap="round"/>
<path d="M167.953 321.363C128.3 281.83 141.703 205.57 153.361 172.382H210.571C235.215 237.552 210.03 298.857 194.357 321.363H167.953Z" fill="#F5E8CF"/>
<path d="M109.992 323.401C106.834 319.923 102.46 311.123 110.223 303.747" stroke="#5A4335" stroke-width="0.247978" stroke-linecap="round"/>
</g>
<ellipse cx="123.87" cy="112.67" rx="15.5175" ry="14.7302" fill="#9B7963"/>
<ellipse cx="123.87" cy="112.67" rx="11.084" ry="10.5216" fill="#3B2F1E"/>
<ellipse cx="234.71" cy="112.67" rx="15.5175" ry="14.7302" fill="#9B7963"/>
<ellipse cx="234.71" cy="112.67" rx="11.084" ry="10.5216" fill="#3B2F1E"/>
<path d="M140.76 89.5063C127.739 99.7061 121.289 118.732 119.449 127.996C119.303 128.729 119.065 129.435 118.715 130.095L116.157 134.919C115.615 135.941 115.331 137.081 115.331 138.238V146.312C116.375 155.559 121.417 163.608 123.807 166.477C132.675 179.461 155.466 185.494 165.753 186.888C194.876 189.593 205.526 185.167 216.827 180.986C228.128 176.806 238.126 166.969 242.473 157.87C245.718 151.076 244.799 140.47 243.778 135.087C243.643 134.374 243.375 133.697 243.012 133.069L240.732 129.123C240.162 128.138 239.858 127.031 239.715 125.902C238.253 114.362 227.563 97.7181 221.794 90.0382C221.524 89.6796 221.219 89.3508 220.881 89.0561C195.033 66.5195 157.601 76.314 140.76 89.5063Z" fill="#9B7963"/>
<path fill-rule="evenodd" clip-rule="evenodd" d="M116.902 152.514C123.502 141.676 136.153 134.346 150.676 134.346C160.446 134.346 169.369 137.664 176.172 143.135C179.914 146.144 185.829 146.144 189.571 143.135C196.374 137.664 205.297 134.346 215.067 134.346C228.48 134.346 240.297 140.599 247.224 150.093C238.91 175.038 212.689 193.255 181.628 193.255C151.58 193.255 126.062 176.208 116.902 152.514Z" fill="#F5E8CF"/>
<path d="M176.093 67.317C176.039 64.9836 178.03 63.0512 180.539 63.001C183.048 62.9508 185.126 64.8017 185.18 67.1351L185.257 70.4466L186.464 67.363C187.322 65.1698 189.93 64.039 192.288 64.8372C194.647 65.6355 195.863 68.0606 195.005 70.2538L190.86 80.8437C190.001 83.0369 187.393 84.1678 185.035 83.3695C184.28 83.1139 183.642 82.6916 183.152 82.1635C182.515 82.5023 181.78 82.7023 180.995 82.718C180.352 82.7309 179.737 82.6188 179.177 82.4056C178.758 83.5975 177.776 84.6048 176.41 85.0669C174.052 85.8652 171.444 84.7343 170.586 82.5411L166.441 71.9512C165.582 69.758 166.798 67.3329 169.157 66.5347C171.515 65.7364 174.123 66.8672 174.982 69.0605L176.206 72.1882L176.093 67.317Z" fill="#9B7963"/>
<path d="M182.355 142.689V157.924C182.355 160.297 184.278 162.221 186.651 162.221H191.099C193.472 162.221 195.396 160.297 195.396 157.924V155.977" stroke="#3B2F1E" stroke-width="0.885637" stroke-linecap="round" stroke-linejoin="round"/>
<path d="M182.355 142.689V157.924C182.355 160.297 180.431 162.221 178.058 162.221H173.61C171.238 162.221 169.314 160.297 169.314 157.924V155.977" stroke="#3B2F1E" stroke-width="0.885637" stroke-linecap="round" stroke-linejoin="round"/>
<path d="M195.119 143.525C195.119 147.005 189.343 149.827 182.216 149.827C175.09 149.827 169.313 147.005 169.313 143.525C169.313 140.045 175.09 136.969 182.216 136.969C189.343 136.969 195.119 140.045 195.119 143.525Z" fill="#3B2F1E"/>
<ellipse cx="224.43" cy="155.382" rx="14.1297" ry="12.0998" fill="#FFCEB9"/>
<ellipse cx="137.489" cy="155.382" rx="14.1297" ry="12.0998" fill="#FFCEB9"/>
<ellipse cx="143.851" cy="134.338" rx="9.31485" ry="7.89118" fill="#3B2F1E"/>
<ellipse cx="217.13" cy="134.338" rx="9.31485" ry="7.89118" fill="#3B2F1E"/>
<path d="M137.935 150.59L110.612 148.486M138.882 155.297L110.611 156.904M140.179 159.807L111.853 165.321" stroke="#3B2F1E" stroke-width="0.70851" stroke-linecap="round"/>
<path d="M224.012 150.591L251.336 148.486M223.064 155.297L251.336 156.903M221.768 159.807L250.094 165.321" stroke="#3B2F1E" stroke-width="0.70851" stroke-linecap="round"/>
<ellipse cx="2.21026" cy="2.03563" rx="2.21026" ry="2.03563" transform="matrix(-0.898307 -0.439369 0.563165 -0.826345 149.688 134.91)" fill="white"/>
<ellipse cx="1.18709" cy="1.24417" rx="1.18709" ry="1.24417" transform="matrix(-0.819067 -0.573698 0.429719 -0.902963 158.676 146.891)" fill="black"/>
<ellipse cx="1.18709" cy="1.24417" rx="1.18709" ry="1.24417" transform="matrix(-0.819065 -0.5737 0.429717 -0.902964 154.106 149.295)" fill="black"/>
<ellipse cx="1.18709" cy="1.24417" rx="1.18709" ry="1.24417" transform="matrix(-0.819065 -0.5737 0.429717 -0.902964 150.143 151.699)" fill="black"/>
<ellipse cx="1.18709" cy="1.24417" rx="1.18709" ry="1.24417" transform="matrix(-0.819067 -0.573698 0.429719 -0.902963 162.033 149.295)" fill="black"/>
<ellipse cx="1.18709" cy="1.24417" rx="1.18709" ry="1.24417" transform="matrix(-0.819065 -0.5737 0.429717 -0.902964 158.07 151.699)" fill="black"/>
<ellipse cx="1.1872" cy="1.24446" rx="1.1872" ry="1.24446" transform="matrix(0.81899 -0.573808 -0.429618 -0.903011 202.478 147.167)" fill="black"/>
<ellipse cx="1.1872" cy="1.24446" rx="1.1872" ry="1.24446" transform="matrix(0.818991 -0.573807 -0.42962 -0.90301 207.049 149.571)" fill="black"/>
<ellipse cx="1.1872" cy="1.24446" rx="1.1872" ry="1.24446" transform="matrix(0.818955 -0.573858 -0.429573 -0.903032 211.012 151.976)" fill="black"/>
<ellipse cx="1.1872" cy="1.24446" rx="1.1872" ry="1.24446" transform="matrix(0.81899 -0.573808 -0.429618 -0.903011 199.121 149.571)" fill="black"/>
<ellipse cx="1.1872" cy="1.24446" rx="1.1872" ry="1.24446" transform="matrix(0.81899 -0.573808 -0.429618 -0.903011 203.084 151.976)" fill="black"/>
<path d="M144.511 123.165C144.532 122.583 146.561 121.22 148.589 121.254C150.618 121.288 151.877 122.707 151.856 123.289C151.836 123.871 150.175 124.315 148.147 124.281C146.119 124.247 144.491 123.747 144.511 123.165Z" fill="white"/>
<path d="M208.923 123.165C208.943 122.583 210.972 121.22 213.001 121.254C215.029 121.288 216.288 122.707 216.268 123.289C216.247 123.871 214.586 124.315 212.558 124.281C210.53 124.247 208.902 123.747 208.923 123.165Z" fill="white"/>
<ellipse cx="2.21026" cy="2.03563" rx="2.21026" ry="2.03563" transform="matrix(-0.898307 -0.439369 0.563165 -0.826345 221.722 134.91)" fill="white"/>
<path d="M261.475 307.193C270.57 305.333 288.469 295.061 287.299 268.856C287.381 263.517 285.654 250.512 276.494 241.195" stroke="#5A4335" stroke-width="0.70851" stroke-linecap="round"/>
<path d="M88.4238 287.128C88.4238 288.093 88.4238 289.059 88.4238 290.025C88.4238 290.591 88.3416 291.268 88.5669 291.801C89.0125 292.854 89.3411 293.897 89.8809 294.95C90.4104 295.983 90.893 297.051 91.351 298.134C91.5935 298.707 92.0307 299.136 92.3137 299.671C92.5177 300.056 92.8672 300.713 93.2244 300.9" stroke="#3B92B9" stroke-width="1.06276" stroke-linecap="round"/>
<path d="M94.1506 302.497C94.0169 302.497 93.7563 302.716 93.8996 302.866C93.9491 302.918 94.2015 302.894 94.218 302.815C94.2315 302.752 94.218 302.668 94.218 302.603" stroke="#3B92B9" stroke-width="1.06276" stroke-linecap="round"/>
<path d="M122.347 333.208C123.166 333.294 123.951 333.421 124.78 333.421C125.943 333.421 127.117 333.423 128.278 333.473C129.18 333.512 130.082 333.506 130.984 333.506C131.555 333.506 132.1 333.506 132.662 333.388C132.917 333.334 133.176 333.326 133.431 333.269C133.72 333.205 134.003 333.061 134.299 333.04C134.552 333.021 134.832 332.992 135.053 332.876C135.173 332.813 135.32 332.852 135.436 332.782C135.5 332.743 135.584 332.696 135.661 332.696" stroke="#3B92B9" stroke-width="1.06276" stroke-linecap="round"/>
<path d="M142.852 330.615C146.026 330.615 149.229 330.573 152.388 330.573" stroke="#3B92B9" stroke-width="1.06276" stroke-linecap="round"/>
<path d="M269.437 317.836C269.483 318.413 269.721 318.955 269.78 319.533C269.827 319.996 269.883 320.654 269.711 321.092C269.526 321.563 269.33 322 269.079 322.431C268.925 322.695 268.724 323.038 268.492 323.238C268.218 323.473 268.071 323.81 267.757 323.999C267.653 324.061 267.522 324.122 267.434 324.204C267.383 324.252 267.141 324.41 267.09 324.41" stroke="#3B92B9" stroke-width="1.06276" stroke-linecap="round"/>
<path d="M265.361 325.574C265.361 325.835 265.652 325.539 265.46 325.539" stroke="#3B92B9" stroke-width="1.06276" stroke-linecap="round"/>
<path d="M269.502 310.871C269.502 310.642 269.505 310.412 269.502 310.182C269.501 310.084 269.47 309.998 269.455 309.902C269.443 309.831 269.464 309.748 269.435 309.681C269.408 309.617 269.32 309.386 269.395 309.335C269.659 309.156 269.982 308.974 270.282 308.877C270.451 308.822 270.598 308.723 270.759 308.656C270.947 308.577 271.151 308.518 271.344 308.459" stroke="#3B92B9" stroke-width="1.06276" stroke-linecap="round"/>
<path d="M294.7 281.838C294.7 282.081 295.378 282.381 295.547 282.557C295.707 282.726 295.893 282.855 295.999 283.065C296.231 283.529 296.306 284.159 296.312 284.683C296.318 285.115 296.352 285.558 296.232 285.969C296.172 286.173 296.085 286.353 296.021 286.545C295.96 286.73 295.788 286.943 295.788 287.128" stroke="#3B92B9" stroke-width="1.06276" stroke-linecap="round"/>
<path d="M295.14 288.848C295.037 288.884 294.888 289.312 294.863 289.409C294.816 289.595 294.685 289.837 294.586 290.003C294.476 290.186 294.3 290.504 294.123 290.596" stroke="#3B92B9" stroke-width="1.06276" stroke-linecap="round"/>
<path d="M215.415 330.982C215.56 330.871 215.83 330.928 215.996 330.928C216.488 330.928 216.981 330.928 217.473 330.928C218.129 330.928 218.784 330.928 219.439 330.928C220.076 330.928 220.712 330.928 221.348 330.928C221.76 330.928 222.152 331.067 222.555 331.091C222.739 331.102 222.93 331.228 223.113 331.266C223.362 331.318 223.631 331.309 223.875 331.366C224.661 331.549 225.548 331.471 226.361 331.471C227.042 331.471 227.722 331.471 228.402 331.471" stroke="#3B92B9" stroke-width="1.06276" stroke-linecap="round"/>
<path d="M90.5583 319.498C90.6317 319.594 90.6379 319.848 90.6724 319.968C90.7421 320.212 90.8106 320.437 90.9152 320.669C91.0512 320.97 91.1405 321.281 91.3586 321.538C91.5385 321.751 91.7165 321.987 91.8633 322.226C92.0505 322.531 92.2756 322.82 92.4799 323.113C92.7766 323.538 93.0604 324.008 93.428 324.368C93.6755 324.611 93.8196 324.959 94.0551 325.206C94.1623 325.319 94.2607 325.574 94.3803 325.645C94.8056 325.901 94.9233 326.58 95.3474 326.803" stroke="#3B92B9" stroke-width="1.06276" stroke-linecap="round"/>
<path d="M127.105 222.269C120.45 209.264 128.337 193.88 133.113 187.814C135.654 188.057 140.692 188.834 140.507 189.998C140.276 191.454 144.435 202.13 156.681 202.858C168.928 203.586 171.239 206.74 176.553 210.137C180.805 212.855 179.403 220.005 178.171 223.24C179.28 230.228 176.168 232.946 174.474 233.431C174.705 238.526 171.239 239.982 166.617 241.681C162.92 243.039 156.45 239.82 153.678 238.041C147.593 238.203 133.76 235.275 127.105 222.269Z" fill="#9B7963"/>
<path d="M167.893 214.602C170.049 215.006 175.102 217.271 178.059 223.094" stroke="#5A4335" stroke-width="0.247978" stroke-linecap="round"/>
<path d="M170.064 225.278C171.528 226.572 174.454 229.985 174.454 233.285" stroke="#5A4335" stroke-width="0.247978" stroke-linecap="round"/>
<path d="M161.748 230.81C163.75 232.347 167.385 236.682 165.907 241.729" stroke="#5A4335" stroke-width="0.247978" stroke-linecap="round"/>
<path d="M235.543 222.856C241.933 209.812 234.36 194.383 229.775 188.299C227.335 188.543 222.499 189.321 222.676 190.49C222.898 191.95 218.905 202.657 207.147 203.387C195.389 204.117 193.171 207.281 188.068 210.688C183.986 213.413 185.332 220.584 186.515 223.829C185.45 230.838 188.438 233.563 190.065 234.05C189.843 239.16 193.171 240.621 197.608 242.324C201.157 243.687 207.369 240.458 210.031 238.674C215.873 238.836 229.154 235.899 235.543 222.856Z" fill="#9B7963"/>
<path d="M186.609 223.725C187.379 221.218 190.629 216.155 197.469 215.96" stroke="#5A4335" stroke-width="0.247978" stroke-linecap="round"/>
<path d="M190.029 233.868C190.491 231.926 192.339 227.656 196.036 226.103" stroke="#5A4335" stroke-width="0.247978" stroke-linecap="round"/>
<path d="M196.075 241.535C195.844 239.189 196.537 233.722 201.158 230.616" stroke="#5A4335" stroke-width="0.247978" stroke-linecap="round"/>
<path d="M209.578 238.817L219.512 230.567" stroke="#5A4335" stroke-width="0.247978" stroke-linecap="round"/>
<defs>
<filter id="filter0_d_1627_17497" x="90.7377" y="162.886" width="200.871" height="169.825" filterUnits="userSpaceOnUse" color-interpolation-filters="sRGB">
<feFlood flood-opacity="0" result="BackgroundImageFix"/>
<feColorMatrix in="SourceAlpha" type="matrix" values="0 0 0 0 0 0 0 0 0 0 0 0 0 0 0 0 0 0 127 0" result="hardAlpha"/>
<feOffset dy="4"/>
<feGaussianBlur stdDeviation="2"/>
<feComposite in2="hardAlpha" operator="out"/>
<feColorMatrix type="matrix" values="0 0 0 0 0.160482 0 0 0 0 0.116444 0 0 0 0 0.0879489 0 0 0 0.5 0"/>
<feBlend mode="normal" in2="BackgroundImageFix" result="effect1_dropShadow_1627_17497"/>
<feBlend mode="normal" in="SourceGraphic" in2="effect1_dropShadow_1627_17497" result="shape"/>
</filter>
</defs>
</svg>
