<svg width="360" height="300" viewBox="0 0 360 300" fill="none" xmlns="http://www.w3.org/2000/svg">
<path d="M92.2609 222.235C92.0295 225.86 93.0479 234.297 98.9737 239.043C95.8874 240.691 90.1314 245.618 91.798 252.143C91.7208 254.45 92.8628 259.904 98.0478 263.266C106.304 266.479 126.797 271.521 142.723 265.985H221.887C238.09 267.468 269.895 267.221 267.488 254.368C268.105 253.461 268.969 250.413 267.488 245.469C277.518 240.031 296.885 227.376 294.107 220.258L287.214 216.774" stroke="white" stroke-width="0.70851" stroke-linecap="round"/>
<g filter="url(#filter0_d_1627_17458)">
<path d="M274.738 201.058C275.662 181.647 257.87 173.236 248.859 171.456C254.959 163.886 266.035 168.949 270.81 172.427C281.532 179.997 285.752 192.404 286.523 197.661C290.22 213.384 283.596 227.506 279.822 232.602C272.797 242.113 261.953 245.138 257.408 245.462L241.234 243.278L242.851 218.043L257.408 219.499C270.533 221.828 274.43 208.176 274.738 201.058Z" fill="#9B7963"/>
<path d="M133.096 125.299C140.721 109.527 140.952 105.645 140.721 100.064C168.141 100.226 222.795 100.55 222.056 100.55C221.132 100.55 222.518 114.38 229.45 124.814C236.382 135.247 234.996 135.49 237.306 141.313C239.617 147.137 235.92 162.666 234.996 162.666C234.071 162.666 235.92 179.165 235.227 182.32C234.672 184.843 236.69 189.356 237.768 191.297C232.777 191.491 228.141 196.393 226.446 198.819C198.795 205.209 142.708 215.755 139.565 206.826C136.423 197.897 124.392 192.106 118.769 190.327C122.852 184.18 130.138 169.46 126.626 159.754C123.113 150.048 124.854 141.313 126.164 138.159C127.473 135.652 130.692 129.57 133.096 125.299Z" fill="#9B7963" stroke="#9B7963" stroke-width="0.354255"/>
<path d="M103.145 241.404C91.7588 228.962 94.3565 211.756 97.0786 204.708C103.834 193.368 111.224 189.966 118.078 190.718C119.385 189.441 121.267 186.066 122.044 184.538C126.711 177.734 127.411 166.798 127.178 162.18H235.441C235.596 168.742 235.907 182.205 235.907 183.566C235.907 184.927 237.774 188.993 238.707 190.856C244.618 189.56 257.607 190.759 262.273 205.924C266.94 221.088 260.329 233.79 256.44 238.245C245.24 232.413 234.507 236.787 230.541 239.703C226.574 243.429 218.454 251.368 217.708 253.312C216.961 255.256 209.308 257.362 205.575 258.172C188.853 257.929 156.064 258.071 155.508 258.266C154.815 258.509 150.743 256.471 148.177 255.256C148.41 255.823 145.984 253.992 134.411 242.133C122.838 230.274 108.745 236.706 103.145 241.404Z" fill="#9B7963"/>
<rect x="143.723" y="257.829" width="61.9257" height="0.485291" fill="#9B7963"/>
<path d="M96.6652 249.276C98.2906 240.086 106.824 236.16 110.888 235.345C115.358 234.758 120.54 235.1 122.571 235.345C127.042 235.54 134.085 240.966 137.049 243.654C140.909 248.542 145.599 252.534 147.462 253.919C151.119 256.656 154.743 257.504 156.097 257.585L170.066 258.318H162.701H158.129H143.652C141.62 258.709 140.266 258.807 139.842 258.807L133.747 260.274C131.207 261.496 125.365 261.74 123.587 261.496C122.165 261.3 121.302 260.599 121.048 260.274C119.828 261.251 119.016 261.496 118.762 261.496C115.917 261.887 113.682 261.658 112.92 261.496C111.701 261.3 110.55 260.762 110.126 260.518C109.72 261.104 109.11 261.414 108.856 261.496C106.012 262.082 103.099 260.925 101.999 260.274C96.9191 256.95 96.3265 251.557 96.6652 249.276Z" fill="#9B7963"/>
<path d="M120.946 260.159C117.789 256.681 113.414 247.881 121.177 240.505" stroke="#5A4335" stroke-width="0.247978" stroke-linecap="round"/>
<path d="M264.261 249.276C262.605 240.086 253.91 236.16 249.77 235.345C245.215 234.758 239.936 235.1 237.866 235.345C233.312 235.54 226.135 240.966 223.116 243.654C219.182 248.542 214.404 252.534 212.506 253.919C208.78 256.656 205.088 257.504 203.708 257.585L189.475 258.318H196.98H201.637H216.388C218.458 258.709 219.838 258.807 220.269 258.807L226.48 260.274C229.068 261.495 235.02 261.74 236.831 261.495C238.28 261.3 239.16 260.599 239.419 260.274C240.661 261.251 241.489 261.495 241.748 261.495C244.646 261.887 246.923 261.658 247.7 261.495C248.942 261.3 250.115 260.762 250.546 260.518C250.96 261.104 251.581 261.414 251.84 261.495C254.738 262.082 257.706 260.925 258.827 260.274C264.002 256.95 264.606 251.557 264.261 249.276Z" fill="#9B7963"/>
<path d="M250.667 260.401C253.884 256.923 258.341 248.124 250.432 240.747" stroke="#5A4335" stroke-width="0.247978" stroke-linecap="round"/>
<path d="M239.529 260.159C242.746 256.681 247.203 247.881 239.294 240.505" stroke="#5A4335" stroke-width="0.247978" stroke-linecap="round"/>
<path d="M167.953 258.363C128.3 218.83 141.703 142.57 153.361 109.382H210.571C235.215 174.552 210.03 235.857 194.357 258.363H167.953Z" fill="#F5E8CF"/>
<path d="M109.992 260.401C106.834 256.923 102.46 248.124 110.223 240.747" stroke="#5A4335" stroke-width="0.247978" stroke-linecap="round"/>
</g>
<ellipse cx="123.87" cy="49.6704" rx="15.5175" ry="14.7302" fill="#9B7963"/>
<ellipse cx="123.87" cy="49.6705" rx="11.084" ry="10.5216" fill="#3B2F1E"/>
<ellipse cx="234.71" cy="49.6704" rx="15.5175" ry="14.7302" fill="#9B7963"/>
<ellipse cx="234.71" cy="49.6705" rx="11.084" ry="10.5216" fill="#3B2F1E"/>
<path d="M140.76 26.5062C127.739 36.7059 121.289 55.7315 119.449 64.9956C119.303 65.7287 119.065 66.4346 118.715 67.095L116.157 71.9187C115.615 72.9411 115.331 74.0809 115.331 75.2382V83.3121C116.375 92.5585 121.417 100.608 123.807 103.477C132.675 116.461 155.466 122.494 165.753 123.888C194.876 126.593 205.525 122.166 216.827 117.986C228.128 113.805 238.126 103.969 242.472 94.8701C245.718 88.0764 244.798 77.4697 243.778 72.0868C243.643 71.3742 243.374 70.6969 243.012 70.0688L240.732 66.1234C240.162 65.1375 239.858 64.0312 239.715 62.9016C238.253 51.3617 227.563 34.718 221.794 27.0381C221.524 26.6795 221.219 26.3507 220.881 26.0559C195.033 3.51941 157.601 13.3139 140.76 26.5062Z" fill="#9B7963"/>
<path fill-rule="evenodd" clip-rule="evenodd" d="M116.902 89.5138C123.502 78.6764 136.153 71.3457 150.676 71.3457C160.446 71.3457 169.369 74.6636 176.172 80.135C179.914 83.1439 185.829 83.1439 189.571 80.135C196.374 74.6636 205.297 71.3457 215.067 71.3457C228.48 71.3457 240.297 77.599 247.224 87.0928C238.91 112.038 212.689 130.255 181.628 130.255C151.58 130.255 126.062 113.208 116.902 89.5138Z" fill="#F5E8CF"/>
<path d="M176.093 4.31702C176.039 1.98358 178.03 0.0512279 180.539 0.000998611C183.048 -0.0492307 185.126 1.80168 185.18 4.13513L185.257 7.44659L186.464 4.36304C187.322 2.16981 189.93 1.03897 192.288 1.83724C194.647 2.63551 195.863 5.0606 195.005 7.25383L190.86 17.8437C190.001 20.0369 187.393 21.1678 185.035 20.3695C184.28 20.1139 183.642 19.6916 183.152 19.1635C182.515 19.5023 181.78 19.7023 180.995 19.718C180.352 19.7309 179.737 19.6188 179.177 19.4056C178.758 20.5975 177.776 21.6048 176.41 22.0669C174.052 22.8652 171.444 21.7343 170.586 19.5411L166.441 8.95125C165.582 6.75802 166.798 4.33293 169.157 3.53466C171.515 2.73639 174.123 3.86722 174.982 6.06045L176.206 9.18819L176.093 4.31702Z" fill="#9B7963"/>
<path d="M182.355 79.689V94.9241C182.355 97.297 184.279 99.2206 186.651 99.2206H191.099C193.472 99.2206 195.396 97.297 195.396 94.9241V92.9768" stroke="#3B2F1E" stroke-width="0.885637" stroke-linecap="round" stroke-linejoin="round"/>
<path d="M182.355 79.689V94.9241C182.355 97.297 180.431 99.2206 178.058 99.2206H173.61C171.238 99.2206 169.314 97.297 169.314 94.9241V92.9768" stroke="#3B2F1E" stroke-width="0.885637" stroke-linecap="round" stroke-linejoin="round"/>
<path d="M195.12 80.525C195.12 84.0052 189.343 86.8264 182.216 86.8264C175.09 86.8264 169.313 84.0052 169.313 80.525C169.313 77.0448 175.09 73.9688 182.216 73.9688C189.343 73.9688 195.12 77.0448 195.12 80.525Z" fill="#3B2F1E"/>
<ellipse cx="224.43" cy="92.3815" rx="14.1297" ry="12.0998" fill="#FFCEB9"/>
<ellipse cx="137.489" cy="92.3815" rx="14.1297" ry="12.0998" fill="#FFCEB9"/>
<ellipse cx="143.851" cy="71.3384" rx="9.31485" ry="7.89118" fill="#3B2F1E"/>
<ellipse cx="217.13" cy="71.3384" rx="9.31485" ry="7.89118" fill="#3B2F1E"/>
<path d="M137.935 87.59L110.612 85.4863M138.882 92.2968L110.611 93.9037M140.179 96.8069L111.853 102.321" stroke="#3B2F1E" stroke-width="0.70851" stroke-linecap="round"/>
<path d="M224.012 87.5906L251.336 85.4863M223.064 92.2974L251.336 93.9036M221.768 96.8074L250.094 102.321" stroke="#3B2F1E" stroke-width="0.70851" stroke-linecap="round"/>
<ellipse cx="2.21026" cy="2.03563" rx="2.21026" ry="2.03563" transform="matrix(-0.898307 -0.439369 0.563165 -0.826345 149.688 71.9104)" fill="white"/>
<ellipse cx="1.18709" cy="1.24417" rx="1.18709" ry="1.24417" transform="matrix(-0.819067 -0.573698 0.429719 -0.902963 158.676 83.8909)" fill="black"/>
<ellipse cx="1.18709" cy="1.24417" rx="1.18709" ry="1.24417" transform="matrix(-0.819065 -0.5737 0.429717 -0.902964 154.106 86.2949)" fill="black"/>
<ellipse cx="1.18709" cy="1.24417" rx="1.18709" ry="1.24417" transform="matrix(-0.819065 -0.5737 0.429717 -0.902964 150.143 88.699)" fill="black"/>
<ellipse cx="1.18709" cy="1.24417" rx="1.18709" ry="1.24417" transform="matrix(-0.819067 -0.573698 0.429719 -0.902963 162.033 86.2949)" fill="black"/>
<ellipse cx="1.18709" cy="1.24417" rx="1.18709" ry="1.24417" transform="matrix(-0.819065 -0.5737 0.429717 -0.902964 158.07 88.699)" fill="black"/>
<ellipse cx="1.1872" cy="1.24446" rx="1.1872" ry="1.24446" transform="matrix(0.81899 -0.573808 -0.429618 -0.903011 202.478 84.1665)" fill="black"/>
<ellipse cx="1.1872" cy="1.24446" rx="1.1872" ry="1.24446" transform="matrix(0.818991 -0.573807 -0.42962 -0.90301 207.049 86.5713)" fill="black"/>
<ellipse cx="1.1872" cy="1.24446" rx="1.1872" ry="1.24446" transform="matrix(0.818955 -0.573858 -0.429573 -0.903032 211.012 88.9761)" fill="black"/>
<ellipse cx="1.1872" cy="1.24446" rx="1.1872" ry="1.24446" transform="matrix(0.81899 -0.573808 -0.429618 -0.903011 199.121 86.5713)" fill="black"/>
<ellipse cx="1.1872" cy="1.24446" rx="1.1872" ry="1.24446" transform="matrix(0.81899 -0.573808 -0.429618 -0.903011 203.084 88.9761)" fill="black"/>
<path d="M144.511 60.165C144.532 59.5828 146.561 58.22 148.589 58.2542C150.617 58.2884 151.877 59.7067 151.856 60.2889C151.836 60.8711 150.175 61.3153 148.147 61.2811C146.119 61.2469 144.491 60.7472 144.511 60.165Z" fill="white"/>
<path d="M208.923 60.165C208.943 59.5828 210.972 58.22 213.001 58.2542C215.029 58.2884 216.288 59.7067 216.268 60.2889C216.247 60.8711 214.586 61.3153 212.558 61.2811C210.53 61.2469 208.902 60.7472 208.923 60.165Z" fill="white"/>
<ellipse cx="2.21026" cy="2.03563" rx="2.21026" ry="2.03563" transform="matrix(-0.898307 -0.439369 0.563165 -0.826345 221.722 71.9104)" fill="white"/>
<path d="M261.474 244.193C270.57 242.333 288.469 232.061 287.299 205.856C287.381 200.517 285.654 187.512 276.494 178.195" stroke="#5A4335" stroke-width="0.70851" stroke-linecap="round"/>
<path d="M88.4238 224.128C88.4238 225.093 88.4238 226.059 88.4238 227.025C88.4238 227.591 88.3416 228.268 88.5669 228.801C89.0125 229.854 89.3411 230.897 89.8809 231.95C90.4104 232.983 90.893 234.051 91.351 235.134C91.5935 235.707 92.0307 236.136 92.3137 236.671C92.5177 237.056 92.8672 237.713 93.2244 237.9" stroke="#3B92B9" stroke-width="1.06276" stroke-linecap="round"/>
<path d="M94.1507 239.497C94.0169 239.497 93.7564 239.716 93.8997 239.866C93.9491 239.918 94.2015 239.893 94.2181 239.815C94.2316 239.752 94.2181 239.668 94.2181 239.603" stroke="#3B92B9" stroke-width="1.06276" stroke-linecap="round"/>
<path d="M122.347 270.208C123.165 270.294 123.951 270.421 124.78 270.421C125.943 270.421 127.117 270.422 128.278 270.473C129.18 270.512 130.082 270.506 130.984 270.506C131.555 270.506 132.1 270.506 132.662 270.388C132.917 270.334 133.176 270.326 133.431 270.269C133.72 270.205 134.003 270.061 134.299 270.04C134.552 270.021 134.832 269.992 135.053 269.876C135.172 269.813 135.32 269.851 135.436 269.782C135.5 269.743 135.584 269.696 135.661 269.696" stroke="#3B92B9" stroke-width="1.06276" stroke-linecap="round"/>
<path d="M142.853 267.615C146.026 267.615 149.229 267.573 152.388 267.573" stroke="#3B92B9" stroke-width="1.06276" stroke-linecap="round"/>
<path d="M269.437 254.836C269.483 255.413 269.721 255.955 269.78 256.533C269.827 256.996 269.883 257.654 269.711 258.092C269.526 258.563 269.33 259 269.079 259.431C268.925 259.695 268.724 260.038 268.492 260.238C268.218 260.473 268.071 260.81 267.757 260.999C267.653 261.061 267.522 261.122 267.434 261.204C267.383 261.252 267.141 261.41 267.09 261.41" stroke="#3B92B9" stroke-width="1.06276" stroke-linecap="round"/>
<path d="M265.361 262.574C265.361 262.835 265.652 262.539 265.46 262.539" stroke="#3B92B9" stroke-width="1.06276" stroke-linecap="round"/>
<path d="M269.502 247.871C269.502 247.642 269.505 247.412 269.502 247.182C269.501 247.084 269.47 246.998 269.455 246.902C269.443 246.831 269.464 246.748 269.435 246.681C269.408 246.617 269.32 246.386 269.395 246.335C269.659 246.156 269.982 245.974 270.282 245.877C270.451 245.822 270.598 245.723 270.759 245.656C270.947 245.577 271.151 245.518 271.344 245.459" stroke="#3B92B9" stroke-width="1.06276" stroke-linecap="round"/>
<path d="M294.7 218.838C294.7 219.081 295.378 219.381 295.547 219.557C295.707 219.726 295.893 219.855 295.999 220.065C296.231 220.529 296.306 221.159 296.312 221.683C296.318 222.115 296.352 222.558 296.232 222.969C296.172 223.173 296.085 223.353 296.021 223.545C295.96 223.73 295.788 223.943 295.788 224.128" stroke="#3B92B9" stroke-width="1.06276" stroke-linecap="round"/>
<path d="M295.14 225.848C295.037 225.884 294.888 226.312 294.863 226.409C294.816 226.595 294.685 226.837 294.586 227.003C294.476 227.186 294.3 227.503 294.123 227.596" stroke="#3B92B9" stroke-width="1.06276" stroke-linecap="round"/>
<path d="M215.415 267.982C215.56 267.871 215.83 267.928 215.996 267.928C216.488 267.928 216.981 267.928 217.473 267.928C218.129 267.928 218.784 267.928 219.439 267.928C220.076 267.928 220.712 267.928 221.348 267.928C221.76 267.928 222.152 268.067 222.555 268.091C222.739 268.102 222.93 268.228 223.113 268.266C223.362 268.318 223.631 268.309 223.875 268.366C224.661 268.549 225.548 268.471 226.361 268.471C227.042 268.471 227.722 268.471 228.402 268.471" stroke="#3B92B9" stroke-width="1.06276" stroke-linecap="round"/>
<path d="M90.5583 256.498C90.6317 256.594 90.638 256.848 90.6724 256.968C90.7422 257.212 90.8106 257.437 90.9152 257.669C91.0512 257.97 91.1405 258.281 91.3586 258.538C91.5385 258.751 91.7165 258.987 91.8633 259.226C92.0505 259.531 92.2757 259.82 92.4799 260.113C92.7766 260.538 93.0604 261.008 93.428 261.368C93.6755 261.611 93.8196 261.959 94.0551 262.206C94.1624 262.319 94.2608 262.574 94.3803 262.645C94.8056 262.901 94.9233 263.58 95.3474 263.803" stroke="#3B92B9" stroke-width="1.06276" stroke-linecap="round"/>
<path d="M168.495 128.511C125.667 109.323 141.407 133.121 154.63 147.419C122.678 187.5 149.819 176.782 167.383 166.413C197.651 213.136 195.995 180.105 191.383 157.75C249.609 144.778 216.085 137.06 192.045 134.822C197.698 90.0612 178.701 111.964 168.495 128.511Z" fill="#CD74B9"/>
<ellipse cx="143.891" cy="124.308" rx="1.99716" ry="1.96313" transform="rotate(-47.3391 143.891 124.308)" fill="#F0BFE5"/>
<ellipse cx="147.934" cy="128.034" rx="1.99716" ry="1.96313" transform="rotate(-47.3391 147.934 128.034)" fill="#F0BFE5"/>
<ellipse cx="151.591" cy="131.403" rx="1.99716" ry="1.96313" transform="rotate(-47.3391 151.591 131.403)" fill="#F0BFE5"/>
<ellipse cx="155.907" cy="134.835" rx="1.99716" ry="1.96313" transform="rotate(-47.3391 155.907 134.835)" fill="#F0BFE5"/>
<ellipse cx="160.319" cy="138.54" rx="1.99716" ry="1.96313" transform="rotate(-47.3391 160.319 138.54)" fill="#F0BFE5"/>
<ellipse cx="164.827" cy="142.149" rx="1.99716" ry="1.96313" transform="rotate(-47.3391 164.827 142.149)" fill="#F0BFE5"/>
<ellipse cx="168.949" cy="145.402" rx="1.99716" ry="1.96313" transform="rotate(-47.3391 168.949 145.402)" fill="#F0BFE5"/>
<ellipse cx="173.437" cy="148.452" rx="1.99716" ry="1.96313" transform="rotate(-47.3391 173.437 148.452)" fill="#F0BFE5"/>
<ellipse cx="169.035" cy="151.1" rx="1.99716" ry="1.96313" transform="rotate(-47.3391 169.035 151.1)" fill="#F0BFE5"/>
<ellipse cx="165.138" cy="154.752" rx="1.99716" ry="1.96313" transform="rotate(-47.3391 165.138 154.752)" fill="#F0BFE5"/>
<ellipse cx="160.053" cy="159.298" rx="1.99716" ry="1.96313" transform="rotate(-47.3391 160.053 159.298)" fill="#F0BFE5"/>
<ellipse cx="154.854" cy="163.015" rx="1.99716" ry="1.96313" transform="rotate(-47.3391 154.854 163.015)" fill="#F0BFE5"/>
<ellipse cx="150.03" cy="166.897" rx="1.99716" ry="1.96313" transform="rotate(-47.3391 150.03 166.897)" fill="#F0BFE5"/>
<ellipse cx="145.576" cy="170.762" rx="1.99716" ry="1.96313" transform="rotate(-47.3391 145.576 170.762)" fill="#F0BFE5"/>
<ellipse cx="175.605" cy="143.391" rx="1.99716" ry="1.96313" transform="rotate(-47.3391 175.605 143.391)" fill="#F0BFE5"/>
<ellipse cx="180.344" cy="148.484" rx="1.99716" ry="1.96313" transform="rotate(-47.3391 180.344 148.484)" fill="#F0BFE5"/>
<ellipse cx="186.097" cy="147.266" rx="1.99716" ry="1.96313" transform="rotate(-47.3391 186.097 147.266)" fill="#F0BFE5"/>
<ellipse cx="191.197" cy="146.173" rx="1.99716" ry="1.96313" transform="rotate(-47.3391 191.197 146.173)" fill="#F0BFE5"/>
<ellipse cx="196.776" cy="145.522" rx="1.99716" ry="1.96313" transform="rotate(-47.3391 196.776 145.522)" fill="#F0BFE5"/>
<ellipse cx="202.275" cy="145.157" rx="1.99716" ry="1.96313" transform="rotate(-47.3391 202.275 145.157)" fill="#F0BFE5"/>
<ellipse cx="208.256" cy="145.235" rx="1.99716" ry="1.96313" transform="rotate(-47.3391 208.256 145.235)" fill="#F0BFE5"/>
<ellipse cx="213.848" cy="144.958" rx="1.99716" ry="1.96313" transform="rotate(-47.3391 213.848 144.958)" fill="#F0BFE5"/>
<ellipse cx="219.44" cy="144.681" rx="1.99716" ry="1.96313" transform="rotate(-47.3391 219.44 144.681)" fill="#F0BFE5"/>
<ellipse cx="177.77" cy="138.146" rx="1.99716" ry="1.96313" transform="rotate(-47.3391 177.77 138.146)" fill="#F0BFE5"/>
<ellipse cx="182.269" cy="127.083" rx="1.99716" ry="1.96313" transform="rotate(-47.3391 182.269 127.083)" fill="#F0BFE5"/>
<ellipse cx="179.834" cy="132.623" rx="1.99716" ry="1.96313" transform="rotate(-47.3391 179.834 132.623)" fill="#F0BFE5"/>
<ellipse cx="184.314" cy="121.002" rx="1.99716" ry="1.96313" transform="rotate(-47.3391 184.314 121.002)" fill="#F0BFE5"/>
<ellipse cx="186.55" cy="115.099" rx="1.99716" ry="1.96313" transform="rotate(-47.3391 186.55 115.099)" fill="#F0BFE5"/>
<ellipse cx="175.409" cy="154.802" rx="1.99716" ry="1.96313" transform="rotate(-47.3391 175.409 154.802)" fill="#F0BFE5"/>
<ellipse cx="177.634" cy="160.113" rx="1.99716" ry="1.96313" transform="rotate(-47.3391 177.634 160.113)" fill="#F0BFE5"/>
<ellipse cx="180.437" cy="165.768" rx="1.99716" ry="1.96313" transform="rotate(-47.3391 180.437 165.768)" fill="#F0BFE5"/>
<ellipse cx="182.275" cy="170.723" rx="1.99716" ry="1.96313" transform="rotate(-47.3391 182.275 170.723)" fill="#F0BFE5"/>
<ellipse cx="184.199" cy="175.206" rx="1.99716" ry="1.96313" transform="rotate(-47.3391 184.199 175.206)" fill="#F0BFE5"/>
<ellipse cx="186.131" cy="180.252" rx="1.99716" ry="1.96313" transform="rotate(-47.3391 186.131 180.252)" fill="#F0BFE5"/>
<ellipse cx="188.076" cy="185.481" rx="1.99716" ry="1.96313" transform="rotate(-47.3391 188.076 185.481)" fill="#F0BFE5"/>
<path d="M127.105 159.269C120.45 146.264 128.337 130.88 133.113 124.814C135.654 125.057 140.692 125.834 140.507 126.998C140.276 128.454 144.435 139.13 156.681 139.858C168.928 140.586 171.239 143.74 176.553 147.137C180.805 149.855 179.403 157.005 178.171 160.24C179.28 167.228 176.168 169.946 174.474 170.431C174.705 175.526 171.239 176.982 166.617 178.681C162.92 180.039 156.45 176.82 153.678 175.041C147.593 175.203 133.76 172.275 127.105 159.269Z" fill="#9B7963"/>
<path d="M167.893 151.602C170.049 152.006 175.102 154.271 178.059 160.094" stroke="#5A4335" stroke-width="0.247978" stroke-linecap="round"/>
<path d="M170.064 162.278C171.528 163.572 174.454 166.985 174.454 170.285" stroke="#5A4335" stroke-width="0.247978" stroke-linecap="round"/>
<path d="M161.748 167.81C163.75 169.347 167.385 173.682 165.907 178.729" stroke="#5A4335" stroke-width="0.247978" stroke-linecap="round"/>
<path d="M235.646 159.856C242.035 146.812 234.463 131.383 229.878 125.299C227.438 125.543 222.601 126.321 222.779 127.49C223.001 128.95 219.007 139.657 207.25 140.387C195.492 141.117 193.273 144.281 188.171 147.688C184.089 150.413 185.435 157.584 186.618 160.829C185.553 167.838 188.54 170.563 190.167 171.05C189.945 176.16 193.273 177.621 197.71 179.324C201.26 180.687 207.471 177.458 210.134 175.674C215.976 175.836 229.257 172.899 235.646 159.856Z" fill="#9B7963"/>
<path d="M186.711 160.725C187.482 158.218 190.732 153.155 197.572 152.96" stroke="#5A4335" stroke-width="0.247978" stroke-linecap="round"/>
<path d="M190.131 170.868C190.593 168.926 192.442 164.656 196.138 163.103" stroke="#5A4335" stroke-width="0.247978" stroke-linecap="round"/>
<path d="M196.178 178.535C195.947 176.189 196.64 170.722 201.261 167.616" stroke="#5A4335" stroke-width="0.247978" stroke-linecap="round"/>
<path d="M209.68 175.817L219.615 167.567" stroke="#5A4335" stroke-width="0.247978" stroke-linecap="round"/>
<defs>
<filter id="filter0_d_1627_17458" x="90.7377" y="99.8862" width="200.871" height="169.825" filterUnits="userSpaceOnUse" color-interpolation-filters="sRGB">
<feFlood flood-opacity="0" result="BackgroundImageFix"/>
<feColorMatrix in="SourceAlpha" type="matrix" values="0 0 0 0 0 0 0 0 0 0 0 0 0 0 0 0 0 0 127 0" result="hardAlpha"/>
<feOffset dy="4"/>
<feGaussianBlur stdDeviation="2"/>
<feComposite in2="hardAlpha" operator="out"/>
<feColorMatrix type="matrix" values="0 0 0 0 0.160482 0 0 0 0 0.116444 0 0 0 0 0.0879489 0 0 0 0.5 0"/>
<feBlend mode="normal" in2="BackgroundImageFix" result="effect1_dropShadow_1627_17458"/>
<feBlend mode="normal" in="SourceGraphic" in2="effect1_dropShadow_1627_17458" result="shape"/>
</filter>
</defs>
</svg>
