<svg width="360" height="305" viewBox="0 0 360 305" fill="none" xmlns="http://www.w3.org/2000/svg">
<path d="M92.2609 227.235C92.0294 230.86 93.0479 239.297 98.9737 244.043C95.8873 245.691 90.1313 250.618 91.7979 257.143C91.7208 259.45 92.8627 264.904 98.0478 268.266C106.304 271.479 126.797 276.521 142.723 270.985H221.887C238.09 272.468 269.895 272.221 267.488 259.368C268.105 258.461 268.969 255.413 267.488 250.469C277.518 245.031 296.885 232.376 294.107 225.258L287.214 221.774" stroke="white" stroke-width="0.70851" stroke-linecap="round"/>
<g filter="url(#filter0_d_1627_17464)">
<path d="M274.738 206.058C275.662 186.647 257.87 178.236 248.859 176.456C254.959 168.886 266.035 173.949 270.81 177.427C281.532 184.997 285.752 197.404 286.523 202.661C290.22 218.384 283.596 232.506 279.822 237.602C272.797 247.113 261.953 250.138 257.408 250.462L241.234 248.278L242.851 223.043L257.408 224.499C270.533 226.828 274.43 213.176 274.738 206.058Z" fill="#9B7963"/>
<path d="M133.095 130.299C140.721 114.527 140.952 110.645 140.721 105.064C168.141 105.226 222.795 105.55 222.056 105.55C221.132 105.55 222.518 119.38 229.45 129.814C236.382 140.247 234.996 140.49 237.306 146.313C239.617 152.137 235.92 167.666 234.996 167.666C234.071 167.666 235.92 184.165 235.227 187.32C234.672 189.843 236.69 194.356 237.768 196.297C232.777 196.491 228.141 201.393 226.446 203.819C198.795 210.209 142.708 220.755 139.565 211.826C136.423 202.897 124.392 197.106 118.769 195.327C122.852 189.18 130.138 174.46 126.626 164.754C123.113 155.048 124.854 146.313 126.163 143.159C127.473 140.652 130.692 134.57 133.095 130.299Z" fill="#9B7963" stroke="#9B7963" stroke-width="0.354255"/>
<path d="M103.145 246.404C91.7588 233.962 94.3565 216.756 97.0786 209.708C103.834 198.368 111.224 194.966 118.078 195.718C119.385 194.441 121.267 191.066 122.044 189.538C126.711 182.734 127.411 171.798 127.178 167.18H235.441C235.596 173.742 235.907 187.205 235.907 188.566C235.907 189.927 237.774 193.993 238.707 195.856C244.618 194.56 257.607 195.759 262.273 210.924C266.94 226.088 260.329 238.79 256.44 243.245C245.24 237.413 234.507 241.787 230.541 244.703C226.574 248.429 218.455 256.368 217.708 258.312C216.961 260.256 209.308 262.362 205.575 263.172C188.853 262.929 156.064 263.071 155.508 263.266C154.815 263.509 150.743 261.471 148.177 260.256C148.41 260.823 145.984 258.992 134.411 247.133C122.838 235.274 108.745 241.706 103.145 246.404Z" fill="#9B7963"/>
<rect x="143.723" y="262.829" width="61.9257" height="0.485291" fill="#9B7963"/>
<path d="M96.6652 254.276C98.2907 245.086 106.825 241.16 110.888 240.345C115.358 239.758 120.54 240.1 122.572 240.345C127.042 240.54 134.085 245.966 137.049 248.654C140.909 253.542 145.599 257.534 147.462 258.919C151.119 261.656 154.743 262.504 156.097 262.585L170.066 263.318H162.701H158.129H143.652C141.62 263.709 140.266 263.807 139.842 263.807L133.747 265.274C131.207 266.496 125.365 266.74 123.587 266.496C122.165 266.3 121.302 265.599 121.048 265.274C119.829 266.251 119.016 266.496 118.762 266.496C115.917 266.887 113.682 266.658 112.92 266.496C111.701 266.3 110.55 265.762 110.126 265.518C109.72 266.104 109.11 266.414 108.856 266.496C106.012 267.082 103.099 265.925 101.999 265.274C96.9192 261.95 96.3266 256.557 96.6652 254.276Z" fill="#9B7963"/>
<path d="M120.946 265.159C117.789 261.681 113.414 252.881 121.177 245.505" stroke="#5A4335" stroke-width="0.247978" stroke-linecap="round"/>
<path d="M264.261 254.276C262.605 245.086 253.91 241.16 249.77 240.345C245.215 239.758 239.936 240.1 237.866 240.345C233.312 240.54 226.135 245.966 223.116 248.654C219.182 253.542 214.404 257.534 212.506 258.919C208.78 261.656 205.088 262.504 203.708 262.585L189.475 263.318H196.98H201.637H216.388C218.458 263.709 219.838 263.807 220.269 263.807L226.48 265.274C229.068 266.495 235.02 266.74 236.831 266.495C238.28 266.3 239.16 265.599 239.419 265.274C240.661 266.251 241.489 266.495 241.748 266.495C244.646 266.887 246.923 266.658 247.7 266.495C248.942 266.3 250.115 265.762 250.546 265.518C250.96 266.104 251.581 266.414 251.84 266.495C254.738 267.082 257.706 265.925 258.827 265.274C264.002 261.95 264.606 256.557 264.261 254.276Z" fill="#9B7963"/>
<path d="M250.667 265.401C253.884 261.923 258.341 253.124 250.432 245.747" stroke="#5A4335" stroke-width="0.247978" stroke-linecap="round"/>
<path d="M239.529 265.159C242.746 261.681 247.203 252.881 239.294 245.505" stroke="#5A4335" stroke-width="0.247978" stroke-linecap="round"/>
<path d="M167.953 263.363C128.3 223.83 141.703 147.57 153.361 114.382H210.571C235.215 179.552 210.03 240.857 194.357 263.363H167.953Z" fill="#F5E8CF"/>
<path d="M109.992 265.401C106.834 261.923 102.46 253.124 110.223 245.747" stroke="#5A4335" stroke-width="0.247978" stroke-linecap="round"/>
</g>
<ellipse cx="123.87" cy="54.6704" rx="15.5175" ry="14.7302" fill="#9B7963"/>
<ellipse cx="123.87" cy="54.6705" rx="11.084" ry="10.5216" fill="#3B2F1E"/>
<ellipse cx="234.71" cy="54.6704" rx="15.5175" ry="14.7302" fill="#9B7963"/>
<ellipse cx="234.71" cy="54.6705" rx="11.084" ry="10.5216" fill="#3B2F1E"/>
<path d="M140.76 31.5062C127.739 41.7059 121.289 60.7315 119.449 69.9956C119.303 70.7287 119.065 71.4346 118.715 72.095L116.157 76.9187C115.615 77.9411 115.331 79.0809 115.331 80.2382V88.3121C116.375 97.5585 121.417 105.608 123.807 108.477C132.675 121.461 155.466 127.494 165.753 128.888C194.876 131.593 205.526 127.166 216.827 122.986C228.128 118.805 238.126 108.969 242.473 99.8701C245.718 93.0764 244.799 82.4697 243.778 77.0868C243.643 76.3742 243.374 75.6969 243.012 75.0688L240.732 71.1234C240.162 70.1375 239.858 69.0312 239.715 67.9016C238.253 56.3617 227.563 39.718 221.794 32.0381C221.524 31.6795 221.219 31.3507 220.881 31.0559C195.033 8.51941 157.601 18.3139 140.76 31.5062Z" fill="#9B7963"/>
<path fill-rule="evenodd" clip-rule="evenodd" d="M116.902 94.5138C123.502 83.6764 136.153 76.3457 150.676 76.3457C160.446 76.3457 169.369 79.6636 176.172 85.135C179.914 88.1439 185.829 88.1439 189.571 85.135C196.374 79.6636 205.297 76.3457 215.067 76.3457C228.48 76.3457 240.297 82.599 247.224 92.0928C238.91 117.038 212.689 135.255 181.628 135.255C151.58 135.255 126.062 118.208 116.902 94.5138Z" fill="#F5E8CF"/>
<path d="M176.093 9.31702C176.039 6.98358 178.03 5.05123 180.539 5.001C183.048 4.95077 185.126 6.80168 185.18 9.13513L185.257 12.4466L186.464 9.36304C187.322 7.16981 189.93 6.03897 192.288 6.83724C194.647 7.63551 195.863 10.0606 195.005 12.2538L190.86 22.8437C190.001 25.0369 187.393 26.1678 185.035 25.3695C184.28 25.1139 183.642 24.6916 183.152 24.1635C182.515 24.5023 181.78 24.7023 180.995 24.718C180.352 24.7309 179.737 24.6188 179.177 24.4056C178.758 25.5975 177.776 26.6048 176.41 27.0669C174.052 27.8652 171.444 26.7343 170.586 24.5411L166.441 13.9512C165.582 11.758 166.798 9.33293 169.157 8.53466C171.515 7.73639 174.123 8.86722 174.982 11.0605L176.206 14.1882L176.093 9.31702Z" fill="#9B7963"/>
<path d="M182.355 84.689V99.9241C182.355 102.297 184.278 104.221 186.651 104.221H191.099C193.472 104.221 195.396 102.297 195.396 99.9241V97.9768" stroke="#3B2F1E" stroke-width="0.885637" stroke-linecap="round" stroke-linejoin="round"/>
<path d="M182.355 84.689V99.9241C182.355 102.297 180.431 104.221 178.058 104.221H173.61C171.238 104.221 169.314 102.297 169.314 99.9241V97.9768" stroke="#3B2F1E" stroke-width="0.885637" stroke-linecap="round" stroke-linejoin="round"/>
<path d="M195.12 85.525C195.12 89.0052 189.343 91.8264 182.216 91.8264C175.09 91.8264 169.313 89.0052 169.313 85.525C169.313 82.0448 175.09 78.9688 182.216 78.9688C189.343 78.9688 195.12 82.0448 195.12 85.525Z" fill="#3B2F1E"/>
<ellipse cx="224.43" cy="97.3815" rx="14.1297" ry="12.0998" fill="#FFCEB9"/>
<ellipse cx="137.489" cy="97.3815" rx="14.1297" ry="12.0998" fill="#FFCEB9"/>
<ellipse cx="143.851" cy="76.3384" rx="9.31485" ry="7.89118" fill="#3B2F1E"/>
<ellipse cx="217.13" cy="76.3384" rx="9.31485" ry="7.89118" fill="#3B2F1E"/>
<path d="M137.935 92.59L110.612 90.4863M138.882 97.2968L110.611 98.9037M140.179 101.807L111.853 107.321" stroke="#3B2F1E" stroke-width="0.70851" stroke-linecap="round"/>
<path d="M224.012 92.5906L251.336 90.4863M223.064 97.2974L251.336 98.9036M221.768 101.807L250.094 107.321" stroke="#3B2F1E" stroke-width="0.70851" stroke-linecap="round"/>
<ellipse cx="2.21026" cy="2.03563" rx="2.21026" ry="2.03563" transform="matrix(-0.898307 -0.439369 0.563165 -0.826345 149.688 76.9104)" fill="white"/>
<ellipse cx="1.18709" cy="1.24417" rx="1.18709" ry="1.24417" transform="matrix(-0.819067 -0.573698 0.429719 -0.902963 158.676 88.8909)" fill="black"/>
<ellipse cx="1.18709" cy="1.24417" rx="1.18709" ry="1.24417" transform="matrix(-0.819065 -0.5737 0.429717 -0.902964 154.106 91.2949)" fill="black"/>
<ellipse cx="1.18709" cy="1.24417" rx="1.18709" ry="1.24417" transform="matrix(-0.819065 -0.5737 0.429717 -0.902964 150.143 93.699)" fill="black"/>
<ellipse cx="1.18709" cy="1.24417" rx="1.18709" ry="1.24417" transform="matrix(-0.819067 -0.573698 0.429719 -0.902963 162.033 91.2949)" fill="black"/>
<ellipse cx="1.18709" cy="1.24417" rx="1.18709" ry="1.24417" transform="matrix(-0.819065 -0.5737 0.429717 -0.902964 158.07 93.699)" fill="black"/>
<ellipse cx="1.1872" cy="1.24446" rx="1.1872" ry="1.24446" transform="matrix(0.81899 -0.573808 -0.429618 -0.903011 202.478 89.1665)" fill="black"/>
<ellipse cx="1.1872" cy="1.24446" rx="1.1872" ry="1.24446" transform="matrix(0.818991 -0.573807 -0.42962 -0.90301 207.049 91.5713)" fill="black"/>
<ellipse cx="1.1872" cy="1.24446" rx="1.1872" ry="1.24446" transform="matrix(0.818955 -0.573858 -0.429573 -0.903032 211.012 93.9761)" fill="black"/>
<ellipse cx="1.1872" cy="1.24446" rx="1.1872" ry="1.24446" transform="matrix(0.81899 -0.573808 -0.429618 -0.903011 199.121 91.5713)" fill="black"/>
<ellipse cx="1.1872" cy="1.24446" rx="1.1872" ry="1.24446" transform="matrix(0.81899 -0.573808 -0.429618 -0.903011 203.084 93.9761)" fill="black"/>
<path d="M144.511 65.165C144.532 64.5828 146.561 63.22 148.589 63.2542C150.618 63.2884 151.877 64.7067 151.856 65.2889C151.836 65.8711 150.175 66.3153 148.147 66.2811C146.119 66.2469 144.491 65.7472 144.511 65.165Z" fill="white"/>
<path d="M208.923 65.165C208.943 64.5828 210.972 63.22 213.001 63.2542C215.029 63.2884 216.288 64.7067 216.268 65.2889C216.247 65.8711 214.586 66.3153 212.558 66.2811C210.53 66.2469 208.902 65.7472 208.923 65.165Z" fill="white"/>
<ellipse cx="2.21026" cy="2.03563" rx="2.21026" ry="2.03563" transform="matrix(-0.898307 -0.439369 0.563165 -0.826345 221.722 76.9104)" fill="white"/>
<path d="M261.474 249.193C270.57 247.333 288.469 237.061 287.299 210.856C287.381 205.517 285.654 192.512 276.494 183.195" stroke="#5A4335" stroke-width="0.70851" stroke-linecap="round"/>
<path d="M88.4238 229.128C88.4238 230.093 88.4238 231.059 88.4238 232.025C88.4238 232.591 88.3416 233.268 88.5669 233.801C89.0125 234.854 89.3411 235.897 89.8809 236.95C90.4104 237.983 90.893 239.051 91.351 240.134C91.5935 240.707 92.0307 241.136 92.3137 241.671C92.5177 242.056 92.8672 242.713 93.2244 242.9" stroke="#3B92B9" stroke-width="1.06276" stroke-linecap="round"/>
<path d="M94.1506 244.497C94.0169 244.497 93.7563 244.716 93.8996 244.866C93.9491 244.918 94.2015 244.893 94.218 244.815C94.2315 244.752 94.218 244.668 94.218 244.603" stroke="#3B92B9" stroke-width="1.06276" stroke-linecap="round"/>
<path d="M122.347 275.208C123.166 275.294 123.951 275.421 124.78 275.421C125.943 275.421 127.117 275.422 128.278 275.473C129.18 275.512 130.082 275.506 130.984 275.506C131.555 275.506 132.1 275.506 132.662 275.388C132.917 275.334 133.176 275.326 133.431 275.269C133.72 275.205 134.003 275.061 134.299 275.04C134.552 275.021 134.832 274.992 135.053 274.876C135.173 274.813 135.32 274.851 135.436 274.782C135.5 274.743 135.584 274.696 135.662 274.696" stroke="#3B92B9" stroke-width="1.06276" stroke-linecap="round"/>
<path d="M142.852 272.615C146.026 272.615 149.229 272.573 152.388 272.573" stroke="#3B92B9" stroke-width="1.06276" stroke-linecap="round"/>
<path d="M269.437 259.836C269.483 260.413 269.721 260.955 269.78 261.533C269.827 261.996 269.883 262.654 269.711 263.092C269.526 263.563 269.33 264 269.079 264.431C268.925 264.695 268.724 265.038 268.492 265.238C268.218 265.473 268.071 265.81 267.757 265.999C267.653 266.061 267.522 266.122 267.434 266.204C267.383 266.252 267.141 266.41 267.09 266.41" stroke="#3B92B9" stroke-width="1.06276" stroke-linecap="round"/>
<path d="M265.361 267.574C265.361 267.835 265.652 267.539 265.46 267.539" stroke="#3B92B9" stroke-width="1.06276" stroke-linecap="round"/>
<path d="M269.502 252.871C269.502 252.642 269.505 252.412 269.502 252.182C269.501 252.084 269.47 251.998 269.455 251.902C269.443 251.831 269.464 251.748 269.435 251.681C269.408 251.617 269.32 251.386 269.395 251.335C269.659 251.156 269.982 250.974 270.282 250.877C270.451 250.822 270.598 250.723 270.759 250.656C270.947 250.577 271.151 250.518 271.344 250.459" stroke="#3B92B9" stroke-width="1.06276" stroke-linecap="round"/>
<path d="M294.7 223.838C294.7 224.081 295.378 224.381 295.547 224.557C295.707 224.726 295.893 224.855 295.999 225.065C296.231 225.529 296.306 226.159 296.312 226.683C296.318 227.115 296.352 227.558 296.232 227.969C296.172 228.173 296.085 228.353 296.021 228.545C295.96 228.73 295.788 228.943 295.788 229.128" stroke="#3B92B9" stroke-width="1.06276" stroke-linecap="round"/>
<path d="M295.14 230.848C295.037 230.884 294.888 231.312 294.863 231.409C294.816 231.595 294.685 231.837 294.586 232.003C294.476 232.186 294.3 232.503 294.123 232.596" stroke="#3B92B9" stroke-width="1.06276" stroke-linecap="round"/>
<path d="M215.415 272.982C215.56 272.871 215.83 272.928 215.996 272.928C216.488 272.928 216.981 272.928 217.473 272.928C218.129 272.928 218.784 272.928 219.439 272.928C220.076 272.928 220.712 272.928 221.348 272.928C221.76 272.928 222.152 273.067 222.555 273.091C222.739 273.102 222.93 273.228 223.113 273.266C223.362 273.318 223.631 273.309 223.875 273.366C224.661 273.549 225.548 273.471 226.361 273.471C227.042 273.471 227.722 273.471 228.402 273.471" stroke="#3B92B9" stroke-width="1.06276" stroke-linecap="round"/>
<path d="M90.5583 261.498C90.6317 261.594 90.638 261.848 90.6724 261.968C90.7422 262.212 90.8106 262.437 90.9152 262.669C91.0512 262.97 91.1405 263.281 91.3586 263.538C91.5385 263.751 91.7165 263.987 91.8633 264.226C92.0505 264.531 92.2757 264.82 92.4799 265.113C92.7766 265.538 93.0604 266.008 93.428 266.368C93.6755 266.611 93.8196 266.959 94.0551 267.206C94.1624 267.319 94.2608 267.574 94.3803 267.645C94.8056 267.901 94.9233 268.58 95.3474 268.803" stroke="#3B92B9" stroke-width="1.06276" stroke-linecap="round"/>
<path d="M186.281 0.851227C162.356 -4.48764 145.437 16.5503 139.369 28.78C139.016 29.492 138.309 29.966 137.515 29.9936L121.163 30.5613C104.221 31.0514 96.4562 34.0325 94.6915 35.4619C82.1266 44.6505 104.633 55.9322 117.457 60.4244C142.163 72.3084 186.928 71.8081 206.223 70.0725C256.828 61.8089 271.19 46.8152 272.327 39.6139C272.407 39.1103 272.641 38.6394 272.856 38.1771C275.399 32.7011 243.66 30.4729 225.469 29.9876C224.522 29.9624 223.716 29.3066 223.441 28.4004C217.649 9.34309 196.423 2.0943 186.281 0.851227Z" fill="#F8CBA5"/>
<path d="M225.473 38.5211L224.235 28.6312C189.155 43.8465 153.037 34.2609 139.363 27.5662L134.766 37.4561C171.968 57.2967 210.738 46.433 225.473 38.5211Z" fill="#DF6767"/>
<path d="M140.527 30.0941L142.651 22.1123C143.283 19.7357 141.201 17.467 138.388 17.467C135.576 17.467 133.494 19.7357 134.126 22.1123L136.25 30.0941L137.286 34.1712L139.817 34.0287L140.527 30.0941Z" fill="white"/>
<path d="M142.697 35.6845L151.902 37.5256C154.643 38.0738 157.26 36.2687 157.26 33.8298C157.26 31.3908 154.643 29.5858 151.902 30.1339L142.697 31.975L138.213 32.7739V34.6107L142.697 35.6845Z" fill="white"/>
<path d="M134.08 35.6845L124.875 37.5257C122.134 38.0739 119.518 36.2689 119.518 33.8299C119.518 31.3909 122.134 29.586 124.875 30.1341L134.08 31.9751L137.095 32.6067L137.67 34.9724L134.08 35.6845Z" fill="white"/>
<path d="M135.804 28.4203L131.847 22.9309C130.356 20.8628 127.034 20.5349 125.045 22.2595C123.056 23.9841 123.434 26.8646 125.819 28.1574L132.15 31.5892L136.629 34.1712L138.389 32.5774L135.804 28.4203Z" fill="white"/>
<path d="M144.627 31.5892L150.958 28.1576C153.343 26.8647 153.721 23.9842 151.732 22.2596C149.743 20.535 146.421 20.8629 144.93 22.931L140.973 28.4205L137.671 33.0176L139.341 35.039L144.627 31.5892Z" fill="white"/>
<path d="M144.627 36.0706L150.958 39.5022C153.343 40.795 153.721 43.6756 151.732 45.4002C149.743 47.1248 146.421 46.7968 144.93 44.7287L140.973 39.2393L137.865 35.5893L140.395 33.5657L144.627 36.0706Z" fill="white"/>
<path d="M135.804 39.2394L131.847 44.7289C130.356 46.797 127.034 47.1249 125.045 45.4003C123.056 43.6757 123.434 40.7952 125.819 39.5023L132.15 36.0707L137.67 33.1472L139.086 34.1775L135.804 39.2394Z" fill="white"/>
<path d="M140.812 37.7939L142.901 45.6484C143.524 47.987 141.475 50.2196 138.707 50.2196C135.939 50.2196 133.891 47.987 134.513 45.6484L136.602 37.7939L137.406 33.5377L139.443 33.3447L140.812 37.7939Z" fill="white"/>
<path d="M138.39 37.6831C140.844 37.6831 142.834 35.9582 142.834 33.8305C142.834 31.7027 140.844 29.9778 138.39 29.9778C135.937 29.9778 133.947 31.7027 133.947 33.8305C133.947 35.9582 135.937 37.6831 138.39 37.6831Z" fill="#FED402"/>
<g style="mix-blend-mode:multiply">
<path fill-rule="evenodd" clip-rule="evenodd" d="M137.264 37.5585C137.623 37.6397 138 37.6829 138.389 37.6829C140.842 37.6829 142.832 35.958 142.832 33.8302C142.832 31.7024 140.842 29.9775 138.389 29.9775C138.132 29.9775 137.88 29.9964 137.636 30.0326C139.545 30.4643 140.955 31.9699 140.955 33.7609C140.955 35.6662 139.36 37.2485 137.264 37.5585Z" fill="#FED402" fill-opacity="0.5"/>
</g>
<path d="M127.105 164.269C120.45 151.264 128.337 135.88 133.113 129.814C135.654 130.057 140.692 130.834 140.507 131.998C140.276 133.454 144.435 144.13 156.681 144.858C168.928 145.586 171.239 148.74 176.553 152.137C180.805 154.855 179.403 162.005 178.171 165.24C179.28 172.228 176.168 174.946 174.474 175.431C174.705 180.526 171.239 181.982 166.617 183.681C162.92 185.039 156.45 181.82 153.678 180.041C147.593 180.203 133.76 177.275 127.105 164.269Z" fill="#9B7963"/>
<path d="M167.893 156.602C170.049 157.006 175.102 159.271 178.059 165.094" stroke="#5A4335" stroke-width="0.247978" stroke-linecap="round"/>
<path d="M170.064 167.278C171.528 168.572 174.454 171.985 174.454 175.285" stroke="#5A4335" stroke-width="0.247978" stroke-linecap="round"/>
<path d="M161.748 172.81C163.75 174.347 167.385 178.682 165.907 183.729" stroke="#5A4335" stroke-width="0.247978" stroke-linecap="round"/>
<path d="M235.543 164.856C241.933 151.812 234.36 136.383 229.775 130.299C227.335 130.543 222.499 131.321 222.676 132.49C222.898 133.95 218.905 144.657 207.147 145.387C195.389 146.117 193.171 149.281 188.068 152.688C183.986 155.413 185.332 162.584 186.515 165.829C185.45 172.838 188.438 175.563 190.065 176.05C189.843 181.16 193.171 182.621 197.608 184.324C201.157 185.687 207.369 182.458 210.031 180.674C215.873 180.836 229.154 177.899 235.543 164.856Z" fill="#9B7963"/>
<path d="M186.609 165.725C187.379 163.218 190.629 158.155 197.469 157.96" stroke="#5A4335" stroke-width="0.247978" stroke-linecap="round"/>
<path d="M190.029 175.868C190.491 173.926 192.339 169.656 196.036 168.103" stroke="#5A4335" stroke-width="0.247978" stroke-linecap="round"/>
<path d="M196.075 183.535C195.844 181.189 196.537 175.722 201.158 172.616" stroke="#5A4335" stroke-width="0.247978" stroke-linecap="round"/>
<path d="M209.578 180.817L219.512 172.567" stroke="#5A4335" stroke-width="0.247978" stroke-linecap="round"/>
<defs>
<filter id="filter0_d_1627_17464" x="90.7377" y="104.886" width="200.871" height="169.825" filterUnits="userSpaceOnUse" color-interpolation-filters="sRGB">
<feFlood flood-opacity="0" result="BackgroundImageFix"/>
<feColorMatrix in="SourceAlpha" type="matrix" values="0 0 0 0 0 0 0 0 0 0 0 0 0 0 0 0 0 0 127 0" result="hardAlpha"/>
<feOffset dy="4"/>
<feGaussianBlur stdDeviation="2"/>
<feComposite in2="hardAlpha" operator="out"/>
<feColorMatrix type="matrix" values="0 0 0 0 0.160482 0 0 0 0 0.116444 0 0 0 0 0.0879489 0 0 0 0.5 0"/>
<feBlend mode="normal" in2="BackgroundImageFix" result="effect1_dropShadow_1627_17464"/>
<feBlend mode="normal" in="SourceGraphic" in2="effect1_dropShadow_1627_17464" result="shape"/>
</filter>
</defs>
</svg>
