<svg width="360" height="558" viewBox="0 0 360 558" fill="none" xmlns="http://www.w3.org/2000/svg">
<g clip-path="url(#clip0_1627_17486)">
<rect width="360" height="558" rx="10" fill="url(#paint0_linear_1627_17486)"/>
<g filter="url(#filter0_d_1627_17486)">
<path d="M34.8317 -54.0112C37.6112 -56.2964 40.2098 -58.8255 42.6106 -61.5543C49.5472 -57.1237 57.5675 -54.6059 65.951 -54.6059C72.8182 -54.6059 79.4159 -56.2205 85.3869 -59.2171C69.3485 -28.4854 40.226 44.5617 73.4302 123.486C110.01 210.435 80.5883 287.325 65.0615 318.181C64.1586 319.975 61.636 318.85 62.1734 316.893C70.3148 287.25 71.6436 217.685 34.8316 135.441C1.71823 61.4608 17.6836 -8.66418 25.2315 -47.4561C28.5698 -49.3233 31.7812 -51.5046 34.8317 -54.0112Z" fill="#017B4E"/>
<path d="M84.5224 -49.8376C86.3682 -23.9267 91.4454 6.35556 102.779 38.0584C130.62 115.932 92.0719 218.004 81.5831 243.216C81.0012 244.615 79.4185 243.975 79.5032 242.374C80.7226 219.154 82.6955 138.981 58.1767 62.0331C47.4048 28.2258 49.4134 -7.94151 55.9641 -39.6578C66.1063 -40.2832 75.8014 -43.8052 84.5224 -49.8376Z" fill="#09A76D"/>
</g>
<g filter="url(#filter1_d_1627_17486)">
<path d="M336.113 585.677C334.638 586.65 333.26 587.727 331.986 588.889C328.307 587.003 324.053 585.93 319.606 585.93C315.964 585.93 312.464 586.618 309.297 587.894C317.804 574.807 333.251 543.699 315.639 510.088C296.236 473.06 311.842 440.315 320.078 427.175C320.557 426.411 321.895 426.89 321.61 427.723C317.292 440.347 316.587 469.972 336.113 504.996C353.677 536.502 345.208 566.365 341.205 582.885C339.434 583.681 337.731 584.61 336.113 585.677Z" fill="#017B4E"/>
<path d="M312.104 583.863C310.417 584.912 308.839 586.074 307.382 587.327C303.171 585.292 298.302 584.136 293.212 584.136C289.043 584.136 285.038 584.878 281.413 586.254C291.15 572.14 308.829 538.594 288.672 502.348C266.465 462.417 284.326 427.105 293.752 412.935C294.3 412.111 295.832 412.628 295.506 413.527C290.563 427.14 289.756 459.087 312.104 496.858C332.206 530.833 322.514 563.037 317.932 580.853C315.905 581.71 313.956 582.712 312.104 583.863Z" fill="#02905D"/>
<path d="M350.057 587.594C351.036 576.56 353.729 563.664 359.741 550.163C374.508 516.999 354.061 473.531 348.498 462.794C348.189 462.198 347.35 462.471 347.395 463.153C348.042 473.041 349.088 507.184 336.083 539.953C330.369 554.35 331.434 569.752 334.909 583.259C340.289 583.525 345.431 585.025 350.057 587.594Z" fill="#09A76D"/>
</g>
</g>
<path d="M65.057 359.359C51.1284 321.566 51.7649 344.973 53.8242 361.109C12.4874 371.374 36.6005 370.829 53.8242 369.274C38.5476 410.8 53.0754 388.521 62.2489 372.19C90.5556 403.918 79.2853 382.688 70.1118 368.107C99.3172 337.779 78.9109 349.638 65.057 359.359Z" fill="url(#paint1_radial_1627_17486)"/>
<path d="M92.2609 398.235C92.0294 401.86 93.0479 410.297 98.9737 415.043C95.8873 416.691 90.1313 421.618 91.7979 428.143C91.7208 430.45 92.8627 435.904 98.0478 439.266C106.304 442.479 126.797 447.521 142.723 441.985H221.887C238.09 443.468 269.895 443.221 267.488 430.368C268.105 429.461 268.969 426.413 267.488 421.469C277.518 416.031 296.885 403.376 294.107 396.258L287.214 392.774" stroke="white" stroke-width="0.70851" stroke-linecap="round"/>
<g filter="url(#filter2_d_1627_17486)">
<path d="M274.738 377.058C275.662 357.647 257.87 349.235 248.859 347.456C254.959 339.886 266.035 344.949 270.81 348.427C281.532 355.997 285.752 368.404 286.523 373.661C290.22 389.384 283.596 403.506 279.822 408.601C272.797 418.113 261.953 421.138 257.408 421.461L241.234 419.278L242.851 394.043L257.408 395.499C270.533 397.828 274.43 384.176 274.738 377.058Z" fill="#9B7963"/>
<path d="M133.095 301.299C140.721 285.527 140.952 281.645 140.721 276.064C168.141 276.226 222.795 276.55 222.056 276.55C221.132 276.55 222.518 290.38 229.45 300.814C236.382 311.247 234.996 311.49 237.306 317.313C239.617 323.137 235.92 338.666 234.996 338.666C234.071 338.666 235.92 355.165 235.227 358.319C234.672 360.843 236.69 365.356 237.768 367.297C232.777 367.491 228.141 372.393 226.446 374.819C198.795 381.208 142.708 391.755 139.565 382.826C136.423 373.897 124.392 368.106 118.769 366.327C122.852 360.18 130.138 345.459 126.626 335.754C123.113 326.048 124.854 317.313 126.163 314.159C127.473 311.652 130.692 305.569 133.095 301.299Z" fill="#9B7963" stroke="#9B7963" stroke-width="0.354255"/>
<path d="M103.145 417.404C91.7588 404.961 94.3565 387.756 97.0786 380.708C103.834 369.368 111.224 365.966 118.078 366.718C119.385 365.441 121.267 362.066 122.044 360.538C126.711 353.733 127.411 342.798 127.178 338.18H235.441C235.596 344.742 235.907 358.205 235.907 359.566C235.907 360.927 237.774 364.993 238.707 366.856C244.618 365.56 257.607 366.759 262.273 381.923C266.94 397.088 260.329 409.789 256.44 414.245C245.24 408.412 234.507 412.787 230.541 415.703C226.574 419.429 218.455 427.368 217.708 429.312C216.961 431.256 209.308 433.362 205.575 434.172C188.853 433.929 156.064 434.071 155.508 434.266C154.815 434.508 150.743 432.471 148.177 431.256C148.41 431.823 145.984 429.992 134.411 418.133C122.838 406.274 108.745 412.706 103.145 417.404Z" fill="#9B7963"/>
<rect x="143.723" y="433.829" width="61.9257" height="0.485291" fill="#9B7963"/>
<path d="M96.6652 425.275C98.2907 416.086 106.825 412.159 110.888 411.345C115.358 410.758 120.54 411.1 122.572 411.345C127.042 411.54 134.085 416.966 137.049 419.654C140.909 424.542 145.599 428.534 147.462 429.919C151.119 432.656 154.743 433.504 156.097 433.585L170.066 434.318H162.701H158.129H143.652C141.62 434.709 140.266 434.807 139.842 434.807L133.747 436.273C131.207 437.495 125.365 437.74 123.587 437.495C122.165 437.3 121.302 436.599 121.048 436.273C119.829 437.251 119.016 437.495 118.762 437.495C115.917 437.886 113.682 437.658 112.92 437.495C111.701 437.3 110.55 436.762 110.126 436.518C109.72 437.104 109.11 437.414 108.856 437.495C106.012 438.082 103.099 436.925 101.999 436.273C96.9192 432.95 96.3266 427.557 96.6652 425.275Z" fill="#9B7963"/>
<path d="M120.946 436.158C117.789 432.681 113.414 423.881 121.177 416.505" stroke="#5A4335" stroke-width="0.247978" stroke-linecap="round"/>
<path d="M264.261 425.275C262.605 416.086 253.91 412.159 249.77 411.345C245.215 410.758 239.936 411.1 237.866 411.345C233.312 411.54 226.135 416.966 223.116 419.654C219.182 424.542 214.404 428.534 212.506 429.919C208.78 432.656 205.088 433.503 203.708 433.585L189.475 434.318H196.98H201.637H216.388C218.458 434.709 219.838 434.807 220.269 434.807L226.48 436.273C229.068 437.495 235.02 437.74 236.831 437.495C238.28 437.3 239.16 436.599 239.419 436.273C240.661 437.251 241.489 437.495 241.748 437.495C244.646 437.886 246.923 437.658 247.7 437.495C248.942 437.3 250.115 436.762 250.546 436.518C250.96 437.104 251.581 437.414 251.84 437.495C254.738 438.082 257.706 436.925 258.827 436.273C264.002 432.949 264.606 427.556 264.261 425.275Z" fill="#9B7963"/>
<path d="M250.667 436.401C253.884 432.923 258.341 424.123 250.432 416.747" stroke="#5A4335" stroke-width="0.247978" stroke-linecap="round"/>
<path d="M239.529 436.158C242.746 432.681 247.203 423.881 239.294 416.505" stroke="#5A4335" stroke-width="0.247978" stroke-linecap="round"/>
<path d="M167.953 434.363C128.3 394.83 141.703 318.57 153.361 285.382H210.571C235.215 350.552 210.03 411.857 194.357 434.363H167.953Z" fill="#F5E8CF"/>
<path d="M109.992 436.401C106.834 432.923 102.46 424.123 110.223 416.747" stroke="#5A4335" stroke-width="0.247978" stroke-linecap="round"/>
</g>
<ellipse cx="123.87" cy="225.67" rx="15.5175" ry="14.7302" fill="#9B7963"/>
<ellipse cx="123.87" cy="225.67" rx="11.084" ry="10.5216" fill="#3B2F1E"/>
<ellipse cx="234.71" cy="225.67" rx="15.5175" ry="14.7302" fill="#9B7963"/>
<ellipse cx="234.71" cy="225.67" rx="11.084" ry="10.5216" fill="#3B2F1E"/>
<path d="M140.76 202.506C127.739 212.706 121.289 231.732 119.449 240.996C119.303 241.729 119.065 242.435 118.715 243.095L116.157 247.919C115.615 248.941 115.331 250.081 115.331 251.238V259.312C116.375 268.559 121.417 276.608 123.807 279.477C132.675 292.461 155.466 298.494 165.753 299.888C194.876 302.593 205.526 298.167 216.827 293.986C228.128 289.806 238.126 279.969 242.473 270.87C245.718 264.076 244.799 253.47 243.778 248.087C243.643 247.374 243.374 246.697 243.012 246.069L240.732 242.123C240.162 241.138 239.858 240.031 239.715 238.902C238.253 227.362 227.563 210.718 221.794 203.038C221.524 202.68 221.219 202.351 220.881 202.056C195.033 179.52 157.601 189.314 140.76 202.506Z" fill="#9B7963"/>
<path fill-rule="evenodd" clip-rule="evenodd" d="M116.902 265.514C123.502 254.676 136.153 247.346 150.676 247.346C160.446 247.346 169.369 250.664 176.172 256.135C179.914 259.144 185.829 259.144 189.571 256.135C196.374 250.664 205.297 247.346 215.067 247.346C228.48 247.346 240.297 253.599 247.224 263.093C238.91 288.038 212.689 306.255 181.628 306.255C151.58 306.255 126.062 289.208 116.902 265.514Z" fill="#F5E8CF"/>
<path d="M176.093 180.317C176.039 177.984 178.03 176.051 180.539 176.001C183.048 175.951 185.126 177.802 185.18 180.135L185.257 183.447L186.464 180.363C187.322 178.17 189.93 177.039 192.288 177.837C194.647 178.636 195.863 181.061 195.005 183.254L190.86 193.844C190.001 196.037 187.393 197.168 185.035 196.369C184.28 196.114 183.642 195.692 183.152 195.163C182.515 195.502 181.78 195.702 180.995 195.718C180.352 195.731 179.737 195.619 179.177 195.406C178.758 196.598 177.776 197.605 176.41 198.067C174.052 198.865 171.444 197.734 170.586 195.541L166.441 184.951C165.582 182.758 166.798 180.333 169.157 179.535C171.515 178.736 174.123 179.867 174.982 182.06L176.206 185.188L176.093 180.317Z" fill="#9B7963"/>
<path d="M182.355 255.689V270.924C182.355 273.297 184.278 275.221 186.651 275.221H191.099C193.472 275.221 195.396 273.297 195.396 270.924V268.977" stroke="#3B2F1E" stroke-width="0.885637" stroke-linecap="round" stroke-linejoin="round"/>
<path d="M182.355 255.689V270.924C182.355 273.297 180.431 275.221 178.058 275.221H173.61C171.238 275.221 169.314 273.297 169.314 270.924V268.977" stroke="#3B2F1E" stroke-width="0.885637" stroke-linecap="round" stroke-linejoin="round"/>
<path d="M195.12 256.525C195.12 260.005 189.343 262.827 182.216 262.827C175.09 262.827 169.313 260.005 169.313 256.525C169.313 253.045 175.09 249.969 182.216 249.969C189.343 249.969 195.12 253.045 195.12 256.525Z" fill="#3B2F1E"/>
<ellipse cx="224.43" cy="268.382" rx="14.1297" ry="12.0998" fill="#FFCEB9"/>
<ellipse cx="137.489" cy="268.382" rx="14.1297" ry="12.0998" fill="#FFCEB9"/>
<ellipse cx="143.851" cy="247.338" rx="9.31485" ry="7.89118" fill="#3B2F1E"/>
<ellipse cx="217.13" cy="247.338" rx="9.31485" ry="7.89118" fill="#3B2F1E"/>
<path d="M137.935 263.59L110.612 261.486M138.882 268.297L110.611 269.904M140.179 272.807L111.853 278.321" stroke="#3B2F1E" stroke-width="0.70851" stroke-linecap="round"/>
<path d="M224.012 263.591L251.336 261.486M223.064 268.297L251.336 269.903M221.768 272.807L250.094 278.321" stroke="#3B2F1E" stroke-width="0.70851" stroke-linecap="round"/>
<ellipse cx="2.21026" cy="2.03563" rx="2.21026" ry="2.03563" transform="matrix(-0.898307 -0.439369 0.563165 -0.826345 149.688 247.91)" fill="white"/>
<ellipse cx="1.18709" cy="1.24417" rx="1.18709" ry="1.24417" transform="matrix(-0.819067 -0.573698 0.429719 -0.902963 158.676 259.891)" fill="black"/>
<ellipse cx="1.18709" cy="1.24417" rx="1.18709" ry="1.24417" transform="matrix(-0.819065 -0.5737 0.429717 -0.902964 154.106 262.295)" fill="black"/>
<ellipse cx="1.18709" cy="1.24417" rx="1.18709" ry="1.24417" transform="matrix(-0.819065 -0.5737 0.429717 -0.902964 150.143 264.699)" fill="black"/>
<ellipse cx="1.18709" cy="1.24417" rx="1.18709" ry="1.24417" transform="matrix(-0.819067 -0.573698 0.429719 -0.902963 162.033 262.295)" fill="black"/>
<ellipse cx="1.18709" cy="1.24417" rx="1.18709" ry="1.24417" transform="matrix(-0.819065 -0.5737 0.429717 -0.902964 158.07 264.699)" fill="black"/>
<ellipse cx="1.1872" cy="1.24446" rx="1.1872" ry="1.24446" transform="matrix(0.81899 -0.573808 -0.429618 -0.903011 202.478 260.167)" fill="black"/>
<ellipse cx="1.1872" cy="1.24446" rx="1.1872" ry="1.24446" transform="matrix(0.818991 -0.573807 -0.42962 -0.90301 207.049 262.571)" fill="black"/>
<ellipse cx="1.1872" cy="1.24446" rx="1.1872" ry="1.24446" transform="matrix(0.818955 -0.573858 -0.429573 -0.903032 211.012 264.976)" fill="black"/>
<ellipse cx="1.1872" cy="1.24446" rx="1.1872" ry="1.24446" transform="matrix(0.81899 -0.573808 -0.429618 -0.903011 199.121 262.571)" fill="black"/>
<ellipse cx="1.1872" cy="1.24446" rx="1.1872" ry="1.24446" transform="matrix(0.81899 -0.573808 -0.429618 -0.903011 203.084 264.976)" fill="black"/>
<path d="M144.511 236.165C144.532 235.583 146.561 234.22 148.589 234.254C150.618 234.288 151.877 235.707 151.856 236.289C151.836 236.871 150.175 237.315 148.147 237.281C146.119 237.247 144.491 236.747 144.511 236.165Z" fill="white"/>
<path d="M208.923 236.165C208.943 235.583 210.973 234.22 213.001 234.254C215.029 234.288 216.288 235.707 216.268 236.289C216.247 236.871 214.586 237.315 212.558 237.281C210.53 237.247 208.902 236.747 208.923 236.165Z" fill="white"/>
<ellipse cx="2.21026" cy="2.03563" rx="2.21026" ry="2.03563" transform="matrix(-0.898307 -0.439369 0.563165 -0.826345 221.722 247.91)" fill="white"/>
<path d="M261.475 420.193C270.57 418.333 288.469 408.061 287.299 381.856C287.381 376.517 285.654 363.512 276.494 354.195" stroke="#5A4335" stroke-width="0.70851" stroke-linecap="round"/>
<path d="M88.4238 400.128C88.4238 401.093 88.4238 402.059 88.4238 403.025C88.4238 403.591 88.3416 404.268 88.5669 404.801C89.0125 405.854 89.3411 406.897 89.8809 407.95C90.4104 408.983 90.893 410.051 91.351 411.134C91.5935 411.707 92.0307 412.136 92.3137 412.671C92.5177 413.056 92.8672 413.713 93.2244 413.9" stroke="#3B92B9" stroke-width="1.06276" stroke-linecap="round"/>
<path d="M94.1506 415.497C94.0169 415.497 93.7563 415.716 93.8996 415.866C93.9491 415.918 94.2015 415.894 94.218 415.815C94.2315 415.752 94.218 415.668 94.218 415.603" stroke="#3B92B9" stroke-width="1.06276" stroke-linecap="round"/>
<path d="M122.347 446.208C123.166 446.294 123.951 446.421 124.78 446.421C125.943 446.421 127.117 446.423 128.278 446.473C129.18 446.512 130.082 446.506 130.984 446.506C131.555 446.506 132.1 446.506 132.662 446.388C132.917 446.334 133.176 446.326 133.431 446.269C133.72 446.205 134.003 446.061 134.299 446.04C134.552 446.021 134.832 445.992 135.053 445.876C135.173 445.813 135.32 445.852 135.436 445.782C135.5 445.743 135.584 445.696 135.662 445.696" stroke="#3B92B9" stroke-width="1.06276" stroke-linecap="round"/>
<path d="M142.852 443.615C146.026 443.615 149.229 443.573 152.388 443.573" stroke="#3B92B9" stroke-width="1.06276" stroke-linecap="round"/>
<path d="M269.437 430.836C269.483 431.413 269.721 431.955 269.78 432.533C269.827 432.996 269.883 433.654 269.711 434.092C269.526 434.563 269.33 435 269.079 435.431C268.925 435.695 268.724 436.038 268.492 436.238C268.218 436.473 268.071 436.81 267.757 436.999C267.653 437.061 267.522 437.122 267.434 437.204C267.383 437.252 267.141 437.41 267.09 437.41" stroke="#3B92B9" stroke-width="1.06276" stroke-linecap="round"/>
<path d="M265.361 438.574C265.361 438.835 265.652 438.539 265.46 438.539" stroke="#3B92B9" stroke-width="1.06276" stroke-linecap="round"/>
<path d="M269.502 423.871C269.502 423.642 269.505 423.412 269.502 423.182C269.501 423.084 269.47 422.998 269.455 422.902C269.443 422.831 269.464 422.748 269.435 422.681C269.408 422.617 269.32 422.386 269.395 422.335C269.659 422.156 269.982 421.974 270.282 421.877C270.451 421.822 270.598 421.723 270.759 421.656C270.947 421.577 271.151 421.518 271.344 421.459" stroke="#3B92B9" stroke-width="1.06276" stroke-linecap="round"/>
<path d="M294.7 394.838C294.7 395.081 295.378 395.381 295.547 395.557C295.707 395.726 295.893 395.855 295.999 396.065C296.231 396.529 296.306 397.159 296.312 397.683C296.318 398.115 296.352 398.558 296.232 398.969C296.172 399.173 296.085 399.353 296.021 399.545C295.96 399.73 295.788 399.943 295.788 400.128" stroke="#3B92B9" stroke-width="1.06276" stroke-linecap="round"/>
<path d="M295.14 401.848C295.037 401.884 294.888 402.312 294.863 402.409C294.816 402.595 294.685 402.837 294.586 403.003C294.476 403.186 294.3 403.504 294.123 403.596" stroke="#3B92B9" stroke-width="1.06276" stroke-linecap="round"/>
<path d="M215.415 443.982C215.56 443.871 215.83 443.928 215.996 443.928C216.488 443.928 216.981 443.928 217.473 443.928C218.129 443.928 218.784 443.928 219.439 443.928C220.076 443.928 220.712 443.928 221.348 443.928C221.76 443.928 222.152 444.067 222.555 444.091C222.739 444.102 222.93 444.228 223.113 444.266C223.362 444.318 223.631 444.309 223.875 444.366C224.661 444.549 225.548 444.471 226.361 444.471C227.042 444.471 227.722 444.471 228.402 444.471" stroke="#3B92B9" stroke-width="1.06276" stroke-linecap="round"/>
<path d="M90.5583 432.498C90.6317 432.594 90.638 432.848 90.6724 432.968C90.7422 433.212 90.8106 433.437 90.9152 433.669C91.0512 433.97 91.1405 434.281 91.3586 434.538C91.5385 434.751 91.7165 434.987 91.8633 435.226C92.0505 435.531 92.2757 435.82 92.4799 436.113C92.7766 436.538 93.0604 437.008 93.428 437.368C93.6755 437.611 93.8196 437.959 94.0551 438.206C94.1624 438.319 94.2608 438.574 94.3803 438.645C94.8056 438.901 94.9233 439.58 95.3474 439.803" stroke="#3B92B9" stroke-width="1.06276" stroke-linecap="round"/>
<path d="M127.105 335.269C120.45 322.264 128.337 306.88 133.113 300.814C135.654 301.057 140.692 301.834 140.507 302.998C140.276 304.454 144.435 315.13 156.681 315.858C168.928 316.586 171.239 319.74 176.553 323.137C180.805 325.855 179.403 333.005 178.171 336.24C179.28 343.228 176.168 345.946 174.474 346.431C174.705 351.526 171.239 352.982 166.617 354.681C162.92 356.039 156.45 352.82 153.678 351.041C147.593 351.203 133.76 348.275 127.105 335.269Z" fill="#9B7963"/>
<path d="M167.893 327.602C170.049 328.006 175.102 330.271 178.059 336.094" stroke="#5A4335" stroke-width="0.247978" stroke-linecap="round"/>
<path d="M170.064 338.278C171.528 339.572 174.454 342.985 174.454 346.285" stroke="#5A4335" stroke-width="0.247978" stroke-linecap="round"/>
<path d="M161.748 343.81C163.75 345.347 167.385 349.682 165.907 354.729" stroke="#5A4335" stroke-width="0.247978" stroke-linecap="round"/>
<path d="M235.543 335.856C241.933 322.812 234.36 307.383 229.775 301.299C227.335 301.543 222.499 302.321 222.676 303.49C222.898 304.95 218.905 315.657 207.147 316.387C195.389 317.117 193.171 320.281 188.068 323.688C183.986 326.413 185.332 333.584 186.515 336.829C185.45 343.838 188.438 346.563 190.065 347.05C189.843 352.16 193.171 353.621 197.608 355.324C201.157 356.687 207.369 353.458 210.031 351.674C215.873 351.836 229.154 348.899 235.543 335.856Z" fill="#9B7963"/>
<path d="M186.609 336.725C187.379 334.218 190.629 329.155 197.469 328.96" stroke="#5A4335" stroke-width="0.247978" stroke-linecap="round"/>
<path d="M190.029 346.868C190.491 344.926 192.339 340.656 196.036 339.103" stroke="#5A4335" stroke-width="0.247978" stroke-linecap="round"/>
<path d="M196.075 354.535C195.844 352.189 196.537 346.722 201.158 343.616" stroke="#5A4335" stroke-width="0.247978" stroke-linecap="round"/>
<path d="M209.578 351.817L219.512 343.567" stroke="#5A4335" stroke-width="0.247978" stroke-linecap="round"/>
<defs>
<filter id="filter0_d_1627_17486" x="10.6934" y="-61.5542" width="105.999" height="388.636" filterUnits="userSpaceOnUse" color-interpolation-filters="sRGB">
<feFlood flood-opacity="0" result="BackgroundImageFix"/>
<feColorMatrix in="SourceAlpha" type="matrix" values="0 0 0 0 0 0 0 0 0 0 0 0 0 0 0 0 0 0 127 0" result="hardAlpha"/>
<feOffset dy="4"/>
<feGaussianBlur stdDeviation="2"/>
<feComposite in2="hardAlpha" operator="out"/>
<feColorMatrix type="matrix" values="0 0 0 0 0 0 0 0 0 0 0 0 0 0 0 0 0 0 0.25 0"/>
<feBlend mode="normal" in2="BackgroundImageFix" result="effect1_dropShadow_1627_17486"/>
<feBlend mode="normal" in="SourceGraphic" in2="effect1_dropShadow_1627_17486" result="shape"/>
</filter>
<filter id="filter1_d_1627_17486" x="274" y="412.521" width="94.9992" height="184.368" filterUnits="userSpaceOnUse" color-interpolation-filters="sRGB">
<feFlood flood-opacity="0" result="BackgroundImageFix"/>
<feColorMatrix in="SourceAlpha" type="matrix" values="0 0 0 0 0 0 0 0 0 0 0 0 0 0 0 0 0 0 127 0" result="hardAlpha"/>
<feOffset dy="4"/>
<feGaussianBlur stdDeviation="2"/>
<feComposite in2="hardAlpha" operator="out"/>
<feColorMatrix type="matrix" values="0 0 0 0 0 0 0 0 0 0 0 0 0 0 0 0 0 0 0.25 0"/>
<feBlend mode="normal" in2="BackgroundImageFix" result="effect1_dropShadow_1627_17486"/>
<feBlend mode="normal" in="SourceGraphic" in2="effect1_dropShadow_1627_17486" result="shape"/>
</filter>
<filter id="filter2_d_1627_17486" x="90.7377" y="275.886" width="200.871" height="169.825" filterUnits="userSpaceOnUse" color-interpolation-filters="sRGB">
<feFlood flood-opacity="0" result="BackgroundImageFix"/>
<feColorMatrix in="SourceAlpha" type="matrix" values="0 0 0 0 0 0 0 0 0 0 0 0 0 0 0 0 0 0 127 0" result="hardAlpha"/>
<feOffset dy="4"/>
<feGaussianBlur stdDeviation="2"/>
<feComposite in2="hardAlpha" operator="out"/>
<feColorMatrix type="matrix" values="0 0 0 0 0.160482 0 0 0 0 0.116444 0 0 0 0 0.0879489 0 0 0 0.5 0"/>
<feBlend mode="normal" in2="BackgroundImageFix" result="effect1_dropShadow_1627_17486"/>
<feBlend mode="normal" in="SourceGraphic" in2="effect1_dropShadow_1627_17486" result="shape"/>
</filter>
<linearGradient id="paint0_linear_1627_17486" x1="180" y1="0" x2="180" y2="558" gradientUnits="userSpaceOnUse">
<stop offset="0.295" stop-color="#E2F6FF"/>
<stop offset="0.415" stop-color="#A1C5D6"/>
<stop offset="0.655" stop-color="#1F6483"/>
<stop offset="0.9" stop-color="#597682"/>
<stop offset="1" stop-color="#889499"/>
</linearGradient>
<radialGradient id="paint1_radial_1627_17486" cx="0" cy="0" r="1" gradientUnits="userSpaceOnUse" gradientTransform="translate(58 366) rotate(90) scale(27)">
<stop stop-color="#FFD5A4"/>
<stop offset="0.51" stop-color="#F8CEBF"/>
<stop offset="1" stop-color="#EFBD9F"/>
</radialGradient>
<clipPath id="clip0_1627_17486">
<rect width="360" height="558" rx="10" fill="white"/>
</clipPath>
</defs>
</svg>
